<?xml version="1.0" standalone="no"?>
<!DOCTYPE svg PUBLIC "-//W3C//DTD SVG 20010904//EN"
 "http://www.w3.org/TR/2001/REC-SVG-20010904/DTD/svg10.dtd">
<svg version="1.0" xmlns="http://www.w3.org/2000/svg"
 width="1024.000000pt" height="1024.000000pt" viewBox="0 0 1024.000000 1024.000000"
 preserveAspectRatio="xMidYMid meet">

<g transform="translate(0.000000,1024.000000) scale(0.100000,-0.100000)"
fill="#000000" stroke="none">
<path d="M6755 9315 c-49 -7 -93 -10 -97 -8 -5 2 -8 -3 -8 -11 0 -18 2 -18
-177 -16 -104 1 -133 -2 -133 -12 0 -16 -43 -15 -85 2 -62 25 -145 -4 -145
-50 0 -9 -6 -17 -12 -18 -7 -1 -26 -4 -43 -7 -16 -3 -42 -6 -57 -6 -18 0 -28
-6 -28 -15 0 -8 -4 -14 -10 -14 -5 0 -7 7 -4 15 7 17 -16 12 -49 -11 -13 -8
-28 -9 -48 -4 -16 5 -29 5 -29 1 0 -4 -7 -8 -15 -8 -8 0 -15 5 -15 11 0 8 -2
8 -8 0 -10 -15 -62 -27 -62 -14 0 6 -11 8 -25 6 -14 -3 -25 0 -25 5 0 6 -7 6
-19 -1 -13 -6 -22 -7 -26 0 -3 5 -16 6 -28 2 -12 -4 -38 -8 -57 -7 -19 0 -38
-4 -42 -10 -9 -13 -61 -13 -70 0 -5 6 -11 5 -17 -4 -8 -12 -12 -12 -25 2 -13
13 -23 14 -44 7 -25 -10 -26 -9 -8 5 11 8 15 15 9 15 -7 0 -19 -7 -27 -16 -9
-8 -16 -10 -16 -4 0 7 -6 8 -19 0 -11 -5 -27 -7 -37 -3 -12 4 -15 3 -10 -5 4
-7 1 -12 -9 -12 -9 0 -13 5 -10 10 8 13 -11 13 -37 -1 -11 -6 -18 -7 -15 -2 4
6 -9 9 -28 9 -19 -1 -35 -5 -35 -9 0 -4 -10 -3 -22 4 -18 10 -20 9 -15 -5 4
-10 1 -16 -8 -16 -7 0 -17 9 -20 21 -5 15 -10 18 -18 10 -6 -6 -18 -11 -26
-11 -14 0 -14 1 -1 10 8 5 11 10 5 10 -16 -1 -45 -26 -38 -33 15 -16 -22 -5
-40 11 -11 9 -17 11 -13 5 9 -17 -16 -17 -32 -1 -10 10 -14 10 -21 0 -6 -11
-11 -10 -25 3 -15 15 -16 15 -16 -2 0 -11 -3 -14 -8 -7 -9 15 -92 16 -92 2 0
-7 -5 -6 -15 2 -8 6 -18 9 -24 6 -5 -3 -11 0 -14 6 -3 10 -7 10 -17 1 -10 -9
-18 -9 -33 -1 -11 6 -63 12 -116 13 -53 1 -104 6 -115 10 -11 5 -21 3 -27 -6
-7 -11 -9 -11 -9 -1 0 9 -7 11 -21 7 -15 -5 -19 -4 -15 4 4 6 1 11 -8 11 -8 0
-17 -4 -20 -8 -6 -10 -67 -8 -84 2 -7 4 -20 2 -28 -5 -10 -8 -18 -9 -22 -3 -4
6 -20 11 -37 12 -51 4 -279 21 -290 22 -5 1 -20 -2 -33 -6 -19 -5 -24 -2 -29
16 -4 16 -8 18 -14 8 -6 -9 -11 -4 -19 18 l-11 32 -100 -4 c-55 -2 -104 -6
-109 -9 -6 -4 -11 -85 -12 -193 l-2 -187 -6 180 c-3 99 -7 170 -8 158 -1 -13
-6 -23 -12 -23 -6 0 -11 -64 -13 -157 l-3 -158 -2 180 c-1 99 -7 187 -12 195
-10 16 -56 20 -172 12 l-78 -5 -2 -246 c-1 -135 -3 -221 -5 -191 -6 89 -23 85
-23 -6 0 -55 -3 -74 -10 -64 -16 25 -12 -21 5 -50 12 -20 14 -91 15 -377 l0
-352 59 -69 c33 -37 74 -80 92 -93 32 -25 32 -26 38 -132 3 -58 11 -110 16
-116 6 -5 120 -64 255 -132 l244 -122 101 -7 c55 -3 106 -4 113 -2 9 3 12 48
13 176 1 94 2 176 3 183 1 11 63 63 75 63 3 0 -11 -14 -32 -31 -21 -17 -37
-33 -35 -35 2 -2 30 10 62 26 32 17 67 30 76 30 10 0 20 7 24 15 6 18 2 18
-43 5 -63 -18 -44 -2 21 18 100 31 124 35 128 20 1 -7 4 -103 7 -213 l4 -201
97 19 c53 10 106 20 117 22 17 4 20 11 18 57 -4 137 -2 216 7 252 5 22 7 43 5
46 -3 4 7 18 21 31 l26 24 -39 5 c-33 5 -26 8 52 20 103 16 435 17 505 2 25
-5 35 -10 22 -11 -13 -1 -30 -7 -38 -15 -12 -13 -9 -16 22 -26 27 -9 33 -15
23 -21 -11 -8 -10 -12 6 -25 22 -17 21 -39 -1 -62 -10 -10 -12 -18 -5 -25 5
-5 7 -16 4 -23 -6 -15 13 -44 28 -44 5 0 9 9 9 19 0 11 3 28 7 38 6 14 9 11
14 -17 6 -31 7 -29 8 18 1 33 -3 51 -9 47 -5 -3 -10 -1 -10 4 0 6 6 11 13 11
9 0 9 2 -1 9 -10 6 -7 10 12 13 14 3 26 1 26 -3 0 -5 -6 -9 -12 -9 -9 0 -8 -4
2 -11 11 -7 12 -12 3 -15 -7 -3 -10 -11 -8 -17 12 -33 13 -67 2 -67 -7 0 -6
-4 3 -10 13 -9 13 -10 0 -10 -9 0 -11 -3 -4 -8 6 -4 8 -28 6 -55 -4 -43 -6
-46 -21 -35 -13 10 -13 9 2 -8 18 -21 22 -36 10 -32 -5 2 -9 0 -10 -4 -6 -18
-2 -27 15 -31 9 -3 -14 -3 -53 0 -38 3 -67 3 -64 0 3 -4 74 -18 158 -33 84
-14 164 -29 177 -34 l24 -10 0 180 0 180 23 0 c12 0 37 -9 55 -20 32 -19 32
-21 33 -97 0 -43 1 -98 0 -123 0 -25 2 -39 5 -32 3 6 9 10 13 7 5 -2 9 8 9 23
2 26 9 67 12 67 2 0 10 36 12 58 3 20 14 22 22 5 4 -7 4 2 1 20 -2 18 -1 31 4
27 5 -3 12 1 14 7 3 7 6 -83 6 -200 l1 -213 -27 19 c-58 40 -199 84 -341 107
-82 14 -326 30 -272 19 42 -9 47 -24 9 -25 -29 -1 -27 -3 20 -13 46 -9 18 -11
-185 -11 -131 0 -270 -3 -309 -7 l-70 -6 63 10 c34 6 62 14 62 18 0 4 -21 11
-47 17 l-48 10 45 2 c25 2 65 6 90 10 43 8 43 9 10 10 -66 2 -265 -20 -360
-41 -185 -39 -320 -108 -320 -164 0 -45 28 -83 83 -110 28 -15 64 -35 79 -45
l26 -19 7 31 c4 17 13 33 21 36 8 3 14 12 14 20 0 16 26 43 66 69 22 15 60 28
122 44 31 8 32 7 33 -24 0 -17 2 -40 4 -52 4 -17 -3 -23 -35 -33 -69 -21 -169
-69 -194 -95 -14 -13 -28 -21 -32 -17 -3 3 -3 -5 1 -19 4 -14 25 -41 48 -61
l40 -35 6 -110 c3 -60 10 -115 15 -123 5 -7 41 -29 81 -47 67 -31 76 -39 114
-101 46 -74 158 -241 191 -285 11 -15 45 -39 75 -54 l55 -26 0 -281 c0 -191 3
-278 10 -271 6 6 12 60 14 120 6 146 8 485 4 488 -2 1 -20 11 -40 21 -21 11
-38 23 -38 27 0 5 -3 7 -7 5 -8 -2 -13 6 -13 22 0 5 32 17 70 27 50 13 65 20
51 25 -14 6 -20 22 -25 71 -4 34 -12 69 -18 76 -7 7 -10 55 -9 117 l1 105 -27
1 -28 1 30 8 c44 11 168 11 185 0 12 -8 12 -10 -5 -10 -19 0 -20 -6 -17 -82 5
-112 -7 -242 -19 -210 -5 13 -6 35 -3 48 4 15 2 24 -5 24 -6 0 -11 -15 -11
-34 0 -18 -3 -53 -6 -77 l-6 -44 43 -12 c24 -7 53 -19 64 -27 l20 -16 -20 7
c-17 6 -18 4 -8 -8 10 -12 9 -15 -5 -16 -9 -1 -26 -2 -37 -4 -11 -1 -36 1 -55
5 -36 7 -78 -10 -52 -21 6 -2 12 -13 12 -24 0 -10 7 -19 15 -19 11 0 15 -11
16 -37 0 -21 2 -150 4 -288 2 -137 5 -284 8 -325 2 -41 5 -111 6 -154 0 -44 3
-77 6 -74 3 2 5 195 6 427 0 232 3 420 6 417 7 -7 72 27 104 56 15 13 41 46
59 73 18 28 66 98 106 158 40 59 75 116 79 126 3 10 26 26 51 36 25 9 63 34
85 55 l39 37 1 99 0 99 42 30 c36 26 42 36 45 72 3 37 7 43 35 52 18 5 115 13
217 16 102 4 201 11 221 16 50 13 89 45 89 75 0 16 8 27 23 33 48 19 55 35 56
133 l0 92 42 38 c40 37 41 40 37 88 -3 29 0 56 6 64 7 9 54 18 126 26 63 7
131 18 150 24 31 10 36 16 40 51 4 34 9 40 35 45 17 4 39 12 51 18 28 15 143
175 155 215 5 17 9 202 9 409 l0 378 41 0 c57 0 73 12 99 72 20 48 22 63 17
168 -7 147 -10 155 -55 166 l-37 9 -2 65 c0 36 -1 70 -2 75 -1 6 -18 9 -41 7
-22 -2 -48 -1 -58 3 -28 13 -42 13 -137 0z m225 -189 c0 -19 3 -41 6 -50 5
-12 0 -16 -20 -16 -24 0 -26 3 -26 44 0 40 7 53 33 55 4 1 7 -14 7 -33z
m-1595 4 c-3 -5 -11 -10 -16 -10 -6 0 -7 5 -4 10 3 6 11 10 16 10 6 0 7 -4 4
-10z m1471 -23 c10 4 14 -2 14 -21 0 -19 -5 -26 -20 -26 -17 0 -20 6 -19 43 1
23 4 32 6 20 3 -14 9 -20 19 -16z m-3616 -336 c-8 -5 -26 -11 -40 -15 -21 -5
-20 -3 5 9 32 15 60 20 35 6z m2870 -15 c0 -2 -7 -7 -16 -10 -8 -3 -12 -2 -9
4 6 10 25 14 25 6z m-40 -21 c0 -2 -18 -14 -40 -25 -22 -11 -40 -18 -40 -15 0
2 17 13 38 24 42 23 42 23 42 16z m-90 -50 c0 -2 -22 -16 -50 -30 -27 -14 -50
-23 -50 -20 0 2 21 16 48 29 53 28 52 28 52 21z m-2483 -498 c-1 -84 -3 -12
-3 158 0 171 2 239 3 152 2 -87 2 -227 0 -310z m2373 439 c0 -2 -7 -7 -16 -10
-8 -3 -12 -2 -9 4 6 10 25 14 25 6z m-143 -72 c-3 -3 -12 -4 -19 -1 -8 3 -5 6
6 6 11 1 17 -2 13 -5z m-435 -11 c-211 -2 -553 -2 -760 0 -207 1 -35 2 383 2
418 0 588 -1 377 -2z m-1831 -266 l1 -228 32 -31 31 -31 -35 25 -35 26 -3 238
c-1 131 0 236 2 233 3 -3 6 -107 7 -232z m1236 196 c-20 -2 -52 -2 -70 0 -17
2 0 4 38 4 39 0 53 -2 32 -4z m571 0 c-98 -2 -258 -2 -355 0 -98 1 -18 2 177
2 195 0 275 -1 178 -2z m-185 -200 c-101 -2 -265 -2 -365 0 -101 1 -19 2 182
2 201 0 283 -1 183 -2z m1352 -123 c3 -5 1 -10 -4 -10 -6 0 -11 5 -11 10 0 6
2 10 4 10 3 0 8 -4 11 -10z m-932 -135 c-3 -9 -8 -14 -10 -11 -3 3 -2 9 2 15
9 16 15 13 8 -4z m90 8 c-13 -2 -35 -2 -50 0 -16 2 -5 4 22 4 28 0 40 -2 28
-4z m658 -2 c-15 -10 -570 -6 -579 4 -3 3 129 5 294 5 184 0 293 -4 285 -9z
m-2143 -38 c-32 -2 -84 -2 -115 0 -32 2 -6 3 57 3 63 0 89 -1 58 -3z m120 0
c-10 -2 -28 -2 -40 0 -13 2 -5 4 17 4 22 1 32 -1 23 -4z m1854 0 c-112 -2
-292 -2 -400 0 -108 1 -17 2 203 2 220 0 309 -1 197 -2z m-2579 -130 c-7 -2
-21 -2 -30 0 -10 3 -4 5 12 5 17 0 24 -2 18 -5z m37 -128 c0 -63 -3 -115 -7
-115 -10 0 -16 162 -8 200 4 17 8 30 11 30 2 0 4 -52 4 -115z m1763 38 c-7 -2
-19 -2 -25 0 -7 3 -2 5 12 5 14 0 19 -2 13 -5z m795 -100 c-10 -2 -26 -2 -35
0 -10 3 -2 5 17 5 19 0 27 -2 18 -5z m116 -118 l40 -20 1 -110 1 -111 -51 18
c-35 12 -95 18 -198 21 -81 2 -151 8 -155 12 -4 4 0 6 8 5 8 -1 32 -2 53 -1
l37 1 0 95 c0 69 -3 95 -12 95 -9 0 -8 4 2 11 9 6 61 9 125 7 85 -3 119 -8
149 -23z m-314 -10 c-14 -8 -29 -14 -35 -14 -5 0 1 6 15 14 14 8 30 14 35 14
6 0 -1 -6 -15 -14z m-33 -147 c-2 -13 -4 -5 -4 17 -1 22 1 32 4 23 2 -10 2
-28 0 -40z m-610 -74 c-3 -3 -12 -4 -19 -1 -8 3 -5 6 6 6 11 1 17 -2 13 -5z
m-670 -10 c-3 -3 -12 -4 -19 -1 -8 3 -5 6 6 6 11 1 17 -2 13 -5z m-90 -20 c-3
-3 -12 -4 -19 -1 -8 3 -5 6 6 6 11 1 17 -2 13 -5z m710 -24 c21 -11 48 -20 60
-20 13 0 23 -4 23 -9 0 -5 -9 -7 -19 -4 -21 5 -23 -10 -6 -36 5 -10 4 -16 -3
-19 -18 -6 -14 -22 6 -22 22 0 95 -20 90 -25 -2 -2 -42 3 -88 12 -121 23 -480
23 -608 0 -106 -20 -112 -20 -92 -7 15 9 16 12 18 67 2 25 7 32 25 35 12 2 21
8 20 14 -1 6 10 9 28 6 16 -2 36 2 45 9 27 22 100 28 286 24 154 -4 182 -7
215 -25z m-767 -54 c0 -2 -9 -6 -20 -9 -11 -3 -18 -1 -14 4 5 9 34 13 34 5z
m-193 -78 c-3 -8 -6 -5 -6 6 -1 11 2 17 5 13 3 -3 4 -12 1 -19z m861 -59 c53
-5 134 -19 178 -29 89 -21 224 -77 224 -93 0 -6 -4 -6 -12 0 -7 6 -24 13 -38
16 l-26 6 -2 -106 c-2 -59 -5 -109 -8 -112 -3 -3 -4 48 -3 114 1 116 1 119
-22 128 -48 18 -195 47 -241 47 l-48 0 0 -117 c0 -65 -4 -124 -9 -131 -6 -10
-54 -15 -192 -18 l-184 -4 2 135 c1 74 -1 135 -5 135 -56 -1 -223 -48 -174
-50 9 0 12 -30 12 -114 l0 -114 -48 -15 c-26 -9 -56 -19 -65 -23 -15 -5 -17 4
-17 98 0 68 4 108 12 116 9 9 8 12 -4 12 -9 0 -24 -10 -32 -22 -12 -16 -16
-18 -16 -7 0 53 142 110 340 138 41 6 86 13 100 15 54 7 185 6 278 -5z m362
-141 c0 -19 -2 -20 -10 -8 -13 19 -13 30 0 30 6 0 10 -10 10 -22z m-770 -167
c-8 -5 -44 -11 -80 -15 -75 -7 -70 0 10 13 78 12 89 13 70 2z"/>
<path d="M6950 9106 c0 -20 2 -36 4 -36 8 0 12 61 4 66 -4 3 -8 -11 -8 -30z"/>
<path d="M6840 9080 c0 -5 5 -10 11 -10 5 0 7 5 4 10 -3 6 -8 10 -11 10 -2 0
-4 -4 -4 -10z"/>
<path d="M6133 7543 c15 -4 17 -18 19 -101 1 -81 2 -89 8 -47 4 28 8 38 8 23
3 -39 20 -78 34 -77 10 0 10 2 1 6 -26 10 -10 102 20 124 5 3 8 9 8 13 -3 20
0 26 12 21 6 -4 1 3 -12 14 -40 36 -59 28 -64 -26 l-3 -48 -2 53 c-2 47 -4 52
-24 51 -17 -1 -19 -2 -5 -6z"/>
<path d="M6123 7400 c0 -25 2 -35 4 -22 2 12 2 32 0 45 -2 12 -4 2 -4 -23z"/>
<path d="M5570 7680 c0 -5 5 -10 10 -10 6 0 10 5 10 10 0 6 -4 10 -10 10 -5 0
-10 -4 -10 -10z"/>
<path d="M5255 7570 c3 -5 8 -10 11 -10 2 0 4 5 4 10 0 6 -5 10 -11 10 -5 0
-7 -4 -4 -10z"/>
<path d="M5255 7541 c-3 -5 -1 -12 5 -16 5 -3 10 1 10 9 0 18 -6 21 -15 7z"/>
<path d="M2695 7490 c-349 -52 -595 -341 -595 -700 0 -195 69 -362 204 -495
145 -143 315 -215 511 -215 266 0 515 153 636 392 76 151 95 363 44 518 l-27
85 -38 -42 -37 -42 13 -53 c19 -71 18 -236 -2 -311 -27 -104 -70 -175 -158
-262 -92 -92 -184 -143 -303 -169 -145 -32 -262 -16 -410 55 -247 119 -387
392 -340 664 63 355 400 568 767 483 63 -14 179 -72 219 -109 l34 -30 33 32
c40 39 38 43 -54 97 -152 89 -333 126 -497 102z"/>
<path d="M5245 7440 c-18 -8 -17 -9 8 -9 16 -1 26 3 22 9 -3 6 -7 10 -8 9 -1
0 -11 -4 -22 -9z"/>
<path d="M4863 7383 c9 -2 25 -2 35 0 9 3 1 5 -18 5 -19 0 -27 -2 -17 -5z"/>
<path d="M2662 7310 c-329 -86 -484 -433 -332 -738 53 -105 154 -206 250 -248
83 -37 137 -48 235 -48 152 -1 269 45 366 144 108 111 149 217 149 389 0 56
-4 101 -9 101 -5 0 -11 -4 -13 -9 -6 -17 -471 -501 -482 -501 -5 0 -102 92
-215 205 l-206 205 75 76 75 76 100 -106 100 -105 117 137 c64 75 151 176 194
225 63 72 74 90 64 102 -24 29 -120 76 -196 95 -96 25 -177 25 -272 0z m299
-20 c64 -19 159 -72 159 -88 0 -17 -143 -171 -153 -165 -6 3 -7 2 -4 -3 3 -6
-17 -34 -45 -64 -41 -46 -44 -48 -18 -12 30 39 30 42 11 42 -31 0 -35 1 -49
19 -8 9 -11 10 -7 4 3 -7 1 -13 -5 -13 -6 0 -13 6 -16 14 -3 8 -13 15 -22 15
-48 3 -59 6 -55 17 3 8 -2 11 -15 7 -11 -2 -31 1 -43 8 -13 7 -31 12 -40 11
-10 -2 -19 6 -23 22 -4 17 -11 23 -23 20 -21 -5 -69 18 -66 32 0 5 -5 15 -13
22 -9 8 -14 9 -14 2 0 -6 -4 -9 -10 -5 -5 3 -7 12 -4 20 4 8 11 12 17 8 6 -4
7 -1 3 6 -6 9 -13 8 -27 -5 -11 -10 -19 -12 -19 -5 0 6 21 25 46 41 123 77
287 96 435 50z m-491 -93 c0 -2 -17 -19 -37 -38 l-38 -34 34 38 c33 34 41 42
41 34z"/>
<path d="M3288 7226 c-53 -56 -152 -165 -220 -242 -68 -77 -170 -193 -227
-257 l-103 -117 47 -56 c26 -30 51 -52 55 -47 3 4 89 96 191 203 367 388 474
504 460 495 -9 -5 -12 -4 -7 3 3 6 2 13 -4 17 -5 3 -10 12 -10 18 0 7 5 4 11
-5 5 -10 15 -18 20 -18 17 0 1 17 -59 63 l-58 44 -96 -101z m167 34 c3 -5 1
-10 -4 -10 -6 0 -11 5 -11 10 0 6 2 10 4 10 3 0 8 -4 11 -10z m-191 -93 c-27
-29 -51 -51 -53 -50 -5 4 90 103 98 103 2 0 -18 -24 -45 -53z m-86 -96 c-13
-15 -25 -27 -27 -25 -4 4 39 54 47 54 2 0 -7 -13 -20 -29z m-48 -54 c0 -2 -15
-16 -32 -33 l-33 -29 29 33 c28 30 36 37 36 29z"/>
<path d="M4510 7162 c0 -23 4 -42 9 -42 10 0 8 67 -3 77 -3 3 -6 -12 -6 -35z"/>
<path d="M4482 7150 c0 -19 2 -27 5 -17 2 9 2 25 0 35 -3 9 -5 1 -5 -18z"/>
<path d="M7122 6820 c0 -14 2 -19 5 -12 2 6 2 18 0 25 -3 6 -5 1 -5 -13z"/>
<path d="M6618 6755 c-25 -34 -22 -43 3 -11 12 15 20 29 18 31 -2 1 -12 -7
-21 -20z"/>
<path d="M7163 6723 l-33 -4 -1 -112 c-1 -117 -16 -109 -18 11 -1 72 -17 81
-50 30 -11 -18 -21 -27 -21 -20 0 6 -7 12 -15 12 -8 0 -15 4 -15 9 0 12 63 41
89 41 12 0 21 5 21 11 0 17 -60 0 -118 -34 -78 -46 -119 -104 -156 -220 -5
-16 -18 -17 -133 -15 l-128 3 4 40 c2 22 11 67 22 100 23 73 18 84 -7 16 -12
-35 -21 -47 -27 -38 -5 7 -5 -2 -2 -22 5 -23 4 -31 -4 -27 -6 4 -11 19 -11 34
0 21 -2 24 -10 12 -8 -13 -10 -13 -10 2 0 9 5 20 10 23 6 4 8 11 4 16 -3 5 6
34 20 64 14 30 23 55 20 55 -15 0 -65 -136 -76 -203 l-12 -78 -110 3 c-91 2
-111 6 -110 18 0 8 4 44 7 80 7 83 -8 26 -19 -70 -4 -36 -9 -58 -11 -48 -2 9
-11 19 -19 22 -12 4 -12 2 -4 -14 8 -15 8 -20 -2 -20 -30 0 -39 -38 -28 -119
31 -224 119 -407 274 -570 150 -156 341 -254 536 -276 109 -12 100 -2 100
-115 0 -54 3 -101 8 -103 4 -3 22 -8 40 -12 l32 -7 0 109 0 109 90 12 c235 32
429 132 584 304 127 140 210 306 242 478 14 77 19 168 8 157 -3 -3 -6 -22 -6
-41 0 -20 -4 -36 -10 -36 -5 0 -6 5 -3 11 4 6 -2 13 -13 16 -12 3 -23 12 -25
22 -2 9 -7 -6 -11 -34 -28 -186 -107 -372 -204 -477 -14 -16 -21 -31 -17 -39
5 -7 4 -10 -1 -6 -5 3 -40 -21 -77 -53 -81 -72 -185 -134 -275 -165 -76 -27
-206 -55 -252 -55 l-30 0 0 113 0 113 75 12 c266 41 494 265 538 527 l13 80
120 5 c99 5 108 7 54 10 -36 2 -82 5 -102 5 -44 2 -65 15 -24 15 16 0 25 4 21
10 -4 6 -9 9 -13 6 -4 -2 -16 0 -27 5 -12 5 24 8 93 7 62 0 116 2 119 6 4 3
-48 6 -115 6 l-122 0 -6 28 c-10 48 -12 48 -13 2 -1 -27 -5 -40 -9 -32 -5 7
-15 10 -23 7 -11 -4 -18 9 -28 56 -7 34 -15 59 -17 56 -3 -3 -1 -22 5 -44 21
-76 26 -73 -117 -73 l-129 0 -12 43 c-20 67 -76 143 -134 181 -49 32 -133 63
-144 53 -4 -5 69 -32 75 -28 1 1 17 -6 35 -16 26 -14 29 -18 13 -21 -10 -2
-22 2 -27 10 -7 11 -9 10 -9 -1 0 -12 -3 -11 -12 2 -14 17 -67 41 -75 33 -3
-2 -1 -11 4 -19 11 -21 4 -157 -8 -157 -6 0 -9 43 -7 110 2 61 3 109 3 108 0
0 -15 -3 -32 -5z m-206 -116 c0 -8 -6 -14 -14 -14 -9 0 -10 4 -2 14 6 7 12 13
14 13 1 0 2 -6 2 -13z m-597 -191 c0 -9 -50 -12 -62 -5 -8 6 1 9 25 9 20 0 37
-2 37 -4z m-90 -76 c0 -11 -4 -20 -9 -20 -5 0 -7 9 -4 20 3 11 7 20 9 20 2 0
4 -9 4 -20z m248 -44 c22 -133 92 -265 197 -371 100 -100 222 -160 366 -180
l46 -6 -1 -112 -1 -112 -55 3 c-303 17 -607 255 -729 572 -26 65 -61 215 -61
256 0 11 23 14 114 14 l113 0 11 -64z m328 47 c44 -138 110 -216 211 -253 l60
-22 6 -115 c4 -64 4 -119 2 -123 -9 -15 -134 14 -205 47 -139 66 -267 222
-314 382 -31 105 -35 101 109 101 111 0 126 -2 131 -17z m904 5 c-1 -41 -36
-151 -68 -212 -46 -88 -154 -199 -237 -243 -61 -32 -139 -57 -207 -66 l-38 -6
0 122 0 122 52 13 c105 25 202 117 229 217 6 22 13 46 15 53 2 9 37 12 129 12
93 0 125 -3 125 -12z m57 -20 c-3 -7 -5 -2 -5 12 0 14 2 19 5 13 2 -7 2 -19 0
-25z m299 -103 c-4 -25 -11 -43 -17 -40 -13 8 -11 36 3 67 17 36 22 27 14 -27z"/>
<path d="M6645 6679 c-4 -6 -5 -12 -2 -15 2 -3 7 2 10 11 7 17 1 20 -8 4z"/>
<path d="M7750 6675 c0 -5 5 -17 10 -25 5 -8 10 -10 10 -5 0 6 -5 17 -10 25
-5 8 -10 11 -10 5z"/>
<path d="M7701 6620 c14 -31 19 -36 19 -24 0 6 -7 19 -16 30 -14 18 -14 18 -3
-6z"/>
<path d="M6226 6589 c-4 -23 -5 -44 -2 -46 2 -2 7 14 11 37 4 23 5 43 2 46 -2
3 -7 -14 -11 -37z"/>
<path d="M6301 6614 c0 -11 3 -14 6 -6 3 7 2 16 -1 19 -3 4 -6 -2 -5 -13z"/>
<path d="M7801 6524 c0 -11 3 -14 6 -6 3 7 2 16 -1 19 -3 4 -6 -2 -5 -13z"/>
<path d="M6212 6488 c-1 -33 -7 -50 -19 -57 -17 -10 -17 -10 0 -11 23 0 29 18
24 71 l-4 44 -1 -47z"/>
<path d="M8052 6495 c0 -16 2 -22 5 -12 2 9 2 23 0 30 -3 6 -5 -1 -5 -18z"/>
<path d="M8121 6454 c0 -11 3 -14 6 -6 3 7 2 16 -1 19 -3 4 -6 -2 -5 -13z"/>
<path d="M8361 6393 c-1 -22 -5 -22 -113 -26 l-113 -3 113 -2 c91 -2 114 1
118 13 3 8 4 20 1 27 -3 7 -6 3 -6 -9z"/>
<path d="M2122 6263 c0 -10 -9 -40 -20 -68 l-21 -50 0 36 c-1 19 2 39 7 45 4
5 -1 1 -11 -10 -10 -11 -15 -26 -13 -33 3 -8 2 -12 -3 -9 -8 5 -91 -159 -91
-182 0 -20 -27 -14 -132 28 -55 22 -106 40 -112 40 -24 0 -55 -46 -115 -173
-34 -71 -61 -130 -61 -133 0 -2 -29 -68 -64 -146 -35 -79 -87 -198 -115 -264
l-52 -122 16 -393 c19 -490 24 -538 67 -593 47 -62 117 -118 142 -114 18 3 30
30 81 177 33 96 66 177 73 179 9 3 12 -25 13 -115 0 -149 7 -342 14 -410 l5
-53 -50 -27 c-28 -16 -105 -64 -173 -107 l-122 -80 50 -8 c28 -4 95 -17 150
-28 121 -24 149 -25 166 -4 22 26 111 73 127 66 10 -3 13 -1 8 6 -5 8 0 12 14
12 18 0 19 -2 8 -13 -28 -27 -127 -87 -145 -88 -40 -1 26 -19 215 -58 269 -56
282 -58 312 -32 22 18 21 21 -5 21 -3 0 -5 -3 -5 -7 0 -12 -47 -22 -70 -16
-19 5 -19 6 3 23 22 17 72 20 95 6 7 -4 25 2 41 13 32 23 73 28 65 9 -2 -7
-25 -26 -49 -43 -55 -37 -58 -35 130 -70 77 -14 159 -30 182 -34 39 -8 46 -5
112 38 39 25 71 49 71 52 0 6 -286 68 -320 70 -8 1 3 5 24 10 30 7 76 3 189
-16 l149 -26 103 61 c96 57 134 85 124 94 -2 2 -49 13 -104 26 -55 12 -106 26
-114 30 -23 12 109 2 186 -15 79 -18 87 -16 153 35 47 36 117 75 102 57 -7 -7
-9 -16 -6 -19 3 -3 -22 -23 -55 -44 -33 -22 -60 -42 -60 -45 -1 -3 44 -16 99
-28 54 -13 105 -30 112 -39 12 -14 8 -15 -37 -9 -27 4 -89 14 -136 24 l-86 17
-69 -50 c-37 -27 -88 -61 -113 -76 l-45 -26 55 -16 c75 -21 547 -108 562 -103
7 2 -32 12 -85 22 -54 10 -98 22 -98 25 0 4 18 4 40 0 22 -4 42 -5 45 -2 7 7
75 8 75 1 0 -3 16 -6 37 -7 25 -1 41 5 53 18 17 20 41 27 39 13 -6 -34 1 -41
30 -30 17 6 27 15 24 20 -3 5 6 2 20 -8 14 -9 24 -22 21 -28 -8 -22 59 -35
113 -21 58 16 62 16 44 5 -11 -7 -3 -15 30 -32 24 -13 46 -24 49 -24 3 -1 18
-7 33 -13 67 -28 115 -34 166 -22 52 12 91 0 91 -28 0 -32 154 -57 215 -35 95
34 94 34 110 5 12 -23 14 -24 15 -7 1 11 4 14 7 7 15 -38 143 -60 233 -41 53
11 91 14 121 7 8 -2 13 4 12 15 -1 17 2 16 24 -5 22 -20 34 -23 106 -23 92 1
162 9 224 27 37 10 63 8 215 -21 95 -19 187 -35 203 -37 32 -4 -61 23 -110 31
-17 3 -44 9 -60 13 l-30 8 27 18 c17 11 51 18 102 20 42 1 71 -1 65 -4 -7 -5
-8 -10 -1 -14 5 -3 12 1 16 9 3 8 15 15 26 15 11 0 20 6 20 14 0 16 25 15 41
-1 9 -9 17 -8 31 0 15 10 21 9 28 -3 9 -13 11 -13 19 -1 8 12 12 12 25 2 13
-11 16 -11 16 3 0 25 63 24 93 -1 10 -10 17 -12 17 -5 0 7 -5 12 -10 12 -6 0
-5 6 2 14 11 12 14 12 21 0 5 -8 12 -12 17 -9 5 3 11 1 15 -5 3 -5 2 -10 -2
-10 -5 0 -33 -18 -63 -41 -89 -66 -80 -66 20 1 30 21 76 48 102 62 l48 25
-118 23 c-118 23 -172 44 -155 61 6 6 70 -3 164 -22 l155 -32 125 81 c73 48
134 82 149 82 29 -1 37 7 -107 -102 l-103 -77 78 -16 c42 -9 97 -20 122 -26
89 -18 335 -59 358 -59 14 0 59 24 101 53 78 55 112 70 137 60 9 -3 -15 -26
-68 -64 -44 -32 -85 -59 -90 -59 -4 0 -8 -4 -8 -9 0 -4 26 -11 58 -15 31 -4
81 -13 111 -21 51 -13 56 -13 80 6 94 73 181 134 220 153 43 22 111 41 111 31
0 -6 -310 -228 -545 -390 -210 -145 -305 -214 -305 -222 0 -5 13 2 67 39 47
32 53 33 53 14 0 -7 16 -26 36 -41 20 -16 52 -42 70 -59 l34 -31 -28 -23 c-41
-35 77 40 223 141 204 142 340 237 423 297 42 31 120 85 172 121 166 114 304
212 333 236 54 44 177 93 448 177 184 58 279 93 290 106 17 19 46 153 56 259
l6 53 59 -6 c71 -8 114 11 103 46 -6 16 -3 19 12 14 38 -12 160 -25 181 -19
59 15 122 207 122 370 0 82 -25 210 -45 232 -17 18 -199 50 -220 39 -17 -10
-22 7 -5 17 16 10 11 44 -7 54 -10 5 -40 12 -68 16 -90 11 -91 12 -104 55 -8
27 -20 44 -36 50 -13 5 -203 39 -422 75 -219 36 -420 70 -448 75 -76 15 -527
90 -541 90 -6 0 -18 -24 -24 -52 -7 -29 -16 -60 -21 -69 -4 -9 -10 -27 -13
-40 -2 -13 -10 -46 -16 -72 -8 -28 -9 -52 -4 -57 5 -4 52 -15 104 -23 52 -9
148 -25 213 -36 65 -12 140 -23 167 -26 26 -2 68 -9 92 -14 23 -5 207 -37 407
-71 201 -33 366 -62 368 -64 2 -2 1 -16 -3 -30 -5 -23 -11 -26 -33 -22 -14 3
-195 33 -401 67 -530 86 -931 157 -939 165 -6 6 52 2 129 -11 19 -3 28 -2 20
1 -8 4 -17 10 -20 14 -5 7 -74 28 -124 37 -20 4 -27 2 -22 -6 4 -6 4 -11 -1
-11 -22 1 -31 21 -35 85 -6 83 -28 133 -72 163 -89 61 -246 -8 -274 -121 -28
-111 -5 -179 78 -232 30 -20 63 -34 73 -31 22 5 22 0 -3 -31 -11 -14 -20 -31
-20 -37 0 -9 -33 -8 -122 4 -105 13 -123 18 -126 34 -2 10 1 23 7 29 6 6 11
26 11 45 0 26 3 32 13 24 6 -6 28 -10 49 -9 39 1 40 5 18 62 -13 34 -26 45
-57 45 -17 0 -23 -7 -26 -32 -2 -18 -3 -8 -1 22 5 81 33 197 65 263 15 31 27
57 26 58 -14 6 -48 8 -70 3 -30 -6 -50 -37 -73 -115 -8 -26 -18 -50 -22 -53
-11 -6 -250 38 -261 50 -9 8 20 84 30 78 7 -4 7 -10 0 -18 -8 -9 19 -16 115
-30 69 -10 126 -17 127 -15 4 6 27 75 27 81 0 2 -10 4 -22 3 -18 -1 -24 -9
-26 -33 -3 -32 -16 -42 -25 -19 -4 9 -8 8 -16 -3 -9 -12 -11 -12 -16 2 -4 10
-4 21 -1 26 3 5 -13 10 -36 10 -27 1 -47 7 -55 17 -6 10 -16 14 -22 10 -6 -3
-11 0 -11 7 0 8 -3 9 -8 3 -4 -5 -16 -11 -27 -12 -18 -1 -18 0 -3 11 15 11 15
13 -3 24 -16 11 -19 9 -19 -8 0 -18 -5 -20 -32 -16 -18 3 -81 11 -140 17 -59
7 -105 16 -102 21 3 5 20 7 37 5 18 -2 24 -2 15 0 -11 3 -18 14 -18 30 0 20
-4 24 -17 19 -10 -4 -14 -4 -10 0 11 11 -25 33 -55 34 -15 0 -34 8 -43 17 -14
13 -21 14 -36 5 -13 -8 -19 -9 -19 -1 0 6 -16 10 -37 9 -21 -1 -42 -1 -48 0
-5 1 -14 2 -19 1 -4 -1 -14 3 -21 9 -10 8 -15 8 -20 0 -4 -6 -17 -10 -28 -8
-12 1 -28 -1 -35 -5 -10 -7 -10 -3 0 19 8 17 31 36 63 51 46 21 47 23 15 17
-19 -3 -45 -12 -57 -20 -27 -17 -62 -83 -55 -103 3 -8 0 -11 -7 -7 -6 4 -11
16 -11 27 0 49 -61 119 -104 119 -14 0 -7 -7 22 -20 41 -18 46 -27 43 -75 l-1
-20 9 20 c8 17 10 17 10 3 1 -21 -35 -43 -44 -28 -4 6 -15 8 -26 5 -11 -4 -19
-2 -19 5 0 6 -5 8 -10 5 -6 -4 -8 -11 -5 -16 4 -5 2 -9 -4 -9 -5 0 -13 5 -16
10 -4 7 -12 7 -25 0 -10 -5 -35 -10 -54 -10 -38 0 -86 -38 -65 -51 6 -3 1 -9
-13 -12 -35 -10 -60 -8 -53 3 4 6 10 8 14 6 4 -3 13 0 21 5 11 8 8 9 -12 6
-16 -2 -28 -1 -28 4 0 4 -10 6 -22 4 -36 -7 -61 4 -55 25 3 11 0 26 -7 34 -11
15 -98 37 -140 35 -11 0 10 -7 48 -15 81 -16 96 -26 78 -55 -7 -11 -10 -25 -6
-31 5 -7 3 -8 -6 -3 -8 5 -11 3 -8 -6 8 -23 103 -39 171 -28 33 6 64 12 68 14
3 3 39 9 78 15 57 8 77 7 99 -4 34 -17 66 -52 59 -63 -3 -5 -46 -22 -96 -38
-50 -16 -91 -34 -91 -40 0 -6 9 -21 20 -33 20 -21 27 -22 246 -22 205 0 226
-2 220 -16 -7 -19 -54 -184 -94 -333 -23 -83 -32 -106 -50 -112 -19 -7 -21 -5
-20 24 1 18 1 49 0 69 l-2 37 -107 -55 c-118 -60 -127 -60 -196 -17 -50 31
-114 41 -141 20 -18 -13 -18 -15 14 -43 98 -85 97 -83 77 -98 -22 -17 -161
-63 -213 -71 -35 -6 -45 -1 -109 46 l-70 51 -85 -7 c-47 -4 -93 -7 -102 -7
-14 1 -18 -8 -18 -36 0 -20 -3 -54 -6 -74 l-7 -38 -71 0 -71 0 1 -62 c2 -71 6
-74 80 -63 27 4 44 11 44 20 0 10 -9 11 -37 4 -50 -11 -73 -11 -73 1 0 6 15
10 33 10 61 0 76 9 80 49 2 20 4 -21 5 -91 l2 -128 -65 0 -65 0 0 -35 c0 -19
0 -38 -1 -42 0 -12 30 -15 77 -8 38 5 44 10 44 30 0 19 -6 24 -32 27 l-33 3
38 6 37 5 0 -51 c0 -27 -4 -45 -8 -39 -5 9 -23 9 -64 2 -53 -9 -58 -12 -59
-36 0 -15 -1 -65 -2 -111 l-2 -84 -77 6 c-42 3 -81 8 -87 12 -7 4 -11 88 -11
249 0 134 -3 297 -6 364 l-7 121 -76 3 -76 4 -97 -63 -96 -62 4 -286 4 -285
-22 0 c-12 0 -45 8 -75 17 l-53 17 0 72 c0 69 -13 106 -23 67 -4 -17 -5 -17
-6 0 0 9 -8 17 -16 17 -8 0 -15 5 -15 11 0 6 10 9 23 7 22 -2 27 2 27 25 0 9
-3 8 -9 -2 -7 -10 -13 -11 -27 -2 -13 7 -15 10 -5 11 11 0 9 4 -5 15 -22 17
-15 19 20 5 20 -7 26 -6 26 4 0 8 -6 14 -12 13 -7 0 -22 1 -33 2 l-20 2 20 9
c17 7 17 9 3 9 -13 1 -18 9 -18 29 1 25 2 26 15 8 7 -10 18 -15 24 -11 6 3 11
-1 11 -9 0 -9 4 -16 9 -16 21 0 -3 40 -32 54 -29 14 -33 14 -39 -2 -4 -9 -7
21 -8 68 -1 47 -3 111 -5 143 -3 62 -1 65 54 46 18 -6 34 -9 37 -6 3 3 -17 13
-45 22 -28 9 -51 20 -51 25 0 4 34 39 75 76 42 37 72 71 68 75 -5 5 -26 17
-48 28 -44 21 -36 23 -198 -45 l-68 -28 5 -293 c6 -316 6 -315 -45 -274 -24
19 -24 19 -29 305 l-5 285 -48 31 c-26 16 -52 42 -57 56 -6 15 -9 28 -8 29 2
1 64 14 138 29 190 39 183 37 171 49 -6 6 -11 24 -11 39 l0 28 -185 0 c-115 0
-185 4 -185 10 0 23 26 106 35 112 5 4 99 8 208 8 162 0 205 3 233 16 19 9 34
22 34 30 0 17 -90 44 -146 44 -27 0 -46 6 -55 17 -16 18 -251 133 -274 133
-19 0 -19 10 4 70 l19 51 -23 28 c-31 36 -116 80 -169 86 -22 2 -32 2 -21 -1
11 -3 24 -10 30 -15 5 -5 17 -9 26 -9 9 0 23 -8 30 -17 10 -11 10 -14 2 -9 -8
4 -13 2 -13 -4 0 -7 7 -9 16 -6 20 8 41 -4 24 -14 -8 -5 -7 -9 4 -13 9 -4 16
-2 16 3 0 6 7 10 15 10 8 0 15 -4 15 -10 0 -5 -4 -9 -9 -7 -5 1 -17 -7 -26
-18 -9 -11 -14 -14 -10 -7 3 6 3 12 -2 13 -4 0 -19 2 -31 3 -17 2 -27 -4 -35
-21 -13 -28 -15 -28 -72 -1 -50 25 -56 42 -24 82 12 15 20 29 18 31 -8 7 -60
-45 -69 -69 -8 -22 -13 -24 -32 -17 -177 67 -390 145 -455 167 l-82 27 -42
-29 c-23 -15 -46 -39 -52 -51 -12 -27 -24 -29 -49 -6 -10 9 -18 11 -18 5 0 -7
-16 -11 -40 -9 -25 1 -40 7 -40 15 0 8 -9 12 -23 10 -20 -2 -45 5 -122 38 -16
7 -57 22 -90 33 -33 12 -69 26 -80 31 -11 5 -46 20 -77 34 -32 14 -58 31 -58
39 0 7 11 46 25 86 38 113 40 152 11 260 -19 73 -32 101 -57 127 -37 38 -48
42 -47 17z m81 -174 c2 -90 0 -100 -46 -227 -26 -74 -46 -139 -43 -145 2 -7 8
-2 12 11 8 27 3 29 187 -49 76 -33 140 -59 143 -59 3 0 276 -121 282 -125 1
-1 -1 -16 -4 -32 -6 -30 -7 -30 -33 -17 -14 8 -93 43 -176 78 -82 34 -213 90
-290 123 -383 165 -547 233 -561 233 -18 0 -18 0 11 72 14 34 25 67 25 74 0
24 18 24 76 -3 103 -46 267 -93 280 -80 16 16 114 230 114 247 0 10 3 11 10 4
6 -6 12 -53 13 -105z m-140 40 c-4 -30 -35 -93 -54 -113 -26 -28 14 92 44 132
14 18 16 15 10 -19z m-57 -144 c-3 -8 0 -15 6 -15 6 0 9 -3 5 -6 -10 -11 -26
6 -20 21 3 8 7 15 10 15 3 0 3 -7 -1 -15z m-101 -217 c127 -55 301 -131 388
-169 87 -38 160 -69 163 -69 3 0 24 -8 47 -19 23 -10 81 -36 130 -56 48 -21
87 -39 87 -40 0 -13 -111 -306 -120 -318 -6 -7 -70 19 -70 29 0 3 7 19 16 35
8 17 14 35 11 42 -2 6 -11 -8 -20 -31 -17 -43 -23 -47 -45 -34 -10 7 -9 16 3
46 9 21 14 40 11 43 -3 3 -13 -13 -22 -36 -18 -45 -18 -45 -44 -31 -19 10 -19
11 1 45 12 19 19 40 17 46 -2 6 -12 -7 -22 -30 -12 -26 -26 -41 -38 -41 -23 0
-23 11 2 60 11 22 16 40 12 40 -5 0 -17 -18 -27 -40 -17 -37 -37 -51 -48 -32
-3 4 3 24 13 45 10 20 15 37 11 37 -4 0 -15 -16 -24 -35 -15 -32 -35 -44 -50
-29 -3 4 1 17 9 30 9 13 14 29 12 35 -2 7 -10 -2 -17 -19 -13 -32 -25 -37 -55
-26 -14 6 -14 10 5 40 12 20 16 34 9 34 -6 0 -16 -13 -21 -30 -13 -35 -11 -35
-61 -13 -31 14 -38 22 -34 38 5 20 5 20 -10 1 -11 -16 -17 -17 -26 -8 -7 7
-20 12 -30 12 -22 0 -22 -2 3 55 11 25 19 49 16 51 -2 3 -14 -18 -26 -46 -12
-27 -26 -50 -31 -50 -18 0 -20 20 -6 55 8 19 12 35 7 35 -4 0 -13 -15 -19 -34
-10 -27 -17 -33 -32 -29 -24 6 -24 6 -4 44 8 17 13 33 10 36 -3 3 -12 -11 -20
-31 -8 -20 -17 -36 -20 -36 -3 0 -25 9 -48 19 -24 10 -119 52 -213 92 -93 40
-171 73 -173 75 -2 1 4 19 13 40 9 22 32 82 52 134 49 133 60 151 81 143 9 -3
121 -51 247 -105z m1062 -162 c56 -19 148 -52 205 -74 56 -23 157 -60 223 -83
136 -47 365 -147 365 -159 0 -5 -10 -10 -22 -12 -20 -3 -18 -6 12 -15 19 -6
52 -18 73 -27 22 -10 36 -12 32 -6 -4 6 -24 18 -46 27 -21 8 -39 19 -39 23 0
5 30 -7 68 -25 37 -19 79 -38 95 -44 15 -6 27 -15 27 -21 0 -17 -37 -11 -103
16 -34 14 -141 54 -237 89 -96 35 -285 107 -419 159 -135 53 -259 98 -276 102
-31 5 -32 4 -62 -63 -17 -37 -53 -129 -81 -203 -100 -267 -125 -318 -147 -300
-7 6 -20 7 -30 4 -14 -6 -16 -4 -7 12 5 10 54 132 107 269 86 219 149 365 158
365 2 0 49 -15 104 -34z m-1320 -127 c76 -34 154 -67 173 -74 19 -7 70 -29
113 -49 43 -20 81 -36 84 -36 3 0 69 -27 147 -61 77 -33 155 -66 171 -73 222
-93 255 -110 255 -129 0 -26 -19 -21 -195 53 -488 203 -486 203 -501 183 -7
-10 -32 -65 -55 -123 -38 -97 -40 -108 -29 -145 6 -22 14 -50 17 -62 3 -13
-11 -64 -35 -125 -22 -57 -57 -156 -78 -221 l-39 -118 -35 6 c-19 3 -57 13
-84 22 -38 12 -50 13 -56 3 -7 -11 -19 -53 -50 -177 -6 -24 -15 -43 -20 -43
-13 0 -19 77 -25 325 -4 121 -10 300 -15 398 -11 199 -17 162 71 395 23 61 44
112 46 112 1 0 64 -28 140 -61z m1548 -207 c99 -39 207 -82 240 -97 73 -33
169 -77 173 -80 4 -3 -68 -199 -76 -207 -4 -4 -39 5 -77 20 -84 33 -97 40 -89
53 3 5 9 23 14 39 13 45 -5 36 -20 -10 -10 -31 -17 -39 -29 -34 -9 3 -29 11
-46 17 -16 5 -31 11 -33 12 -1 1 5 19 13 40 9 20 14 39 11 42 -3 3 -13 -13
-22 -36 -9 -23 -22 -40 -28 -37 -6 2 -69 27 -141 55 -71 28 -142 57 -156 64
l-25 12 39 113 c32 89 44 112 56 109 9 -3 97 -37 196 -75z m2305 28 c11 -8 7
-9 -15 -4 -37 8 -45 14 -19 14 10 0 26 -5 34 -10z m951 -71 c57 -6 106 -13
109 -16 3 -2 -2 -8 -11 -13 -18 -10 -50 -81 -74 -164 -14 -47 -19 -56 -27 -43
-5 9 -19 17 -31 16 -21 -1 -21 -1 3 -10 18 -6 12 -7 -24 -4 -27 3 -61 5 -75 5
-21 0 -23 2 -11 11 12 9 12 10 -3 5 -10 -3 -31 -6 -47 -6 -22 0 -30 -5 -33
-22 -3 -17 -5 -15 -6 9 0 18 4 55 10 84 8 37 8 53 0 58 -14 9 2 67 26 93 14
15 26 19 54 14 20 -3 83 -11 140 -17z m-4066 -198 l140 -59 5 -54 c5 -55 14
-78 31 -78 6 0 7 5 4 10 -8 13 8 13 40 -2 22 -10 25 -16 19 -42 -4 -17 -14
-46 -22 -63 -16 -33 -16 -33 -36 -14 -29 27 -109 66 -181 88 -91 27 -287 25
-375 -6 -76 -26 -186 -97 -219 -141 -12 -18 -25 -30 -27 -28 -6 7 66 220 82
243 18 26 18 59 -2 97 -21 40 -15 73 30 170 l35 77 168 -69 c92 -38 231 -96
308 -129z m4250 149 c3 -5 -3 -10 -14 -10 -12 0 -21 5 -21 10 0 6 6 10 14 10
8 0 18 -4 21 -10z m587 -57 c-17 -3 -22 -10 -20 -26 2 -16 -7 -29 -37 -49 -40
-28 -61 -36 -51 -19 3 5 -14 11 -38 12 -24 2 -42 1 -39 -3 2 -5 -3 -8 -11 -8
-13 0 -14 4 -4 25 22 48 81 74 168 73 30 0 45 -3 32 -5z m533 -33 c241 -41
434 -74 630 -109 94 -16 208 -35 255 -42 47 -7 77 -15 68 -17 -16 -3 -112 12
-492 78 -182 31 -195 31 -196 -6 0 -6 55 -20 128 -33 70 -11 227 -39 349 -60
355 -63 343 -60 323 -91 -8 -13 -10 -12 -10 3 0 10 -8 17 -19 17 -11 0 -28 3
-38 7 -15 6 -16 4 -5 -9 10 -13 10 -17 -3 -22 -8 -3 -18 -5 -20 -6 -3 0 -12
-5 -19 -12 -18 -17 1 -30 25 -18 12 7 21 5 29 -5 7 -9 11 -17 9 -19 -7 -6
-140 13 -299 43 -85 16 -219 39 -298 52 -78 12 -140 24 -138 26 2 3 64 -4 138
-16 314 -47 328 -48 328 -22 0 6 -6 8 -14 5 -8 -3 -17 0 -21 5 -3 6 -11 8 -17
5 -7 -5 -8 -2 -3 6 6 10 4 12 -8 7 -11 -4 -17 -1 -17 8 0 10 11 15 33 16 l32
1 -35 8 c-23 6 -39 5 -45 -2 -7 -8 -6 -9 4 -3 9 5 12 4 8 -2 -3 -5 -21 -8 -38
-5 -27 4 -31 2 -26 -12 4 -9 2 -16 -3 -16 -6 0 -10 7 -10 15 0 11 -12 15 -42
16 -24 1 -46 1 -50 0 -5 0 -8 3 -8 9 0 5 -12 16 -27 25 l-28 15 30 -5 c24 -4
26 -3 10 4 -11 5 -28 10 -38 10 -14 1 -16 -3 -7 -18 9 -19 9 -19 -21 -4 -16 8
-40 13 -51 10 -23 -6 -12 8 12 16 8 2 2 2 -15 0 -16 -3 -44 -5 -62 -4 -24 1
-33 -4 -38 -19 -3 -11 -11 -20 -16 -20 -6 0 -6 7 1 19 7 13 7 22 0 26 -5 3
-10 -1 -10 -9 0 -9 -5 -15 -12 -14 -6 2 -13 -4 -15 -13 -3 -10 8 -19 34 -26
l38 -10 -48 1 c-48 0 -48 0 -42 31 4 16 9 38 11 47 6 21 -12 26 -264 70 l-192
33 6 29 c4 19 2 32 -7 38 -18 12 51 4 266 -32z m-863 -14 c6 4 9 1 6 -7 -3 -8
-15 -15 -27 -17 -21 -3 -22 -2 -10 20 8 14 14 18 17 10 2 -6 8 -9 14 -6z
m-4029 -32 c97 -38 149 -63 132 -64 -10 0 -226 88 -234 96 -11 10 16 1 102
-32z m-83 -3 c32 -16 76 -35 99 -41 48 -13 72 -45 41 -53 -26 -7 -92 11 -85
23 3 5 -5 12 -17 16 -35 11 -71 41 -56 47 7 3 3 6 -8 6 -12 1 -27 8 -34 16
-18 22 -5 19 60 -14z m3979 -3 c65 -3 67 -5 52 -58 -9 -31 -17 -31 -238 6 -35
5 -39 16 -24 57 l10 25 70 -13 c38 -8 97 -15 130 -17z m-225 -5 c-7 -31 -12
-38 -18 -32 -7 7 6 59 15 59 5 0 6 -12 3 -27z m746 -21 c0 -4 -18 -13 -40 -19
-48 -12 -52 -7 -7 12 37 17 47 18 47 7z m30 -23 c0 -5 -4 -9 -10 -9 -5 0 -10
7 -10 16 0 8 5 12 10 9 6 -3 10 -10 10 -16z m-4189 -40 c44 -18 78 -34 75 -36
-5 -6 -159 46 -170 58 -18 17 14 10 95 -22z m-59 -13 c30 -14 74 -30 98 -36
42 -11 42 -12 37 -47 -4 -19 -8 -38 -11 -41 -3 -3 -43 9 -89 27 -46 17 -88 31
-95 31 -7 0 -12 10 -12 23 0 22 10 67 15 67 1 0 27 -11 57 -24z m688 -313 c0
-179 -3 -323 -6 -320 -7 7 -13 75 -13 140 0 20 -5 37 -11 37 -15 0 -12 43 6
68 12 17 12 22 2 23 -10 0 -10 2 0 6 8 3 12 26 12 67 0 36 -5 67 -12 74 -8 8
-15 54 -18 122 -5 109 -5 110 18 110 l22 0 0 -327z m5023 290 c-7 -2 -21 -2
-30 0 -10 3 -4 5 12 5 17 0 24 -2 18 -5z m-2106 -34 c112 -15 110 -13 118 -67
5 -35 15 -53 37 -72 l30 -25 -16 -95 c-9 -52 -21 -112 -27 -133 -9 -35 -12
-37 -42 -32 -40 6 -178 23 -281 34 -101 11 -114 28 -132 167 -8 56 -19 74 -44
74 -15 0 -19 -11 -22 -67 -10 -217 40 -351 155 -410 42 -22 69 -27 142 -31 82
-3 94 -1 138 22 53 29 55 26 36 -47 l-10 -42 -130 6 c-233 12 -346 75 -429
241 -38 76 -53 137 -30 123 18 -11 38 14 50 66 7 27 16 52 21 55 5 3 9 19 9
36 0 36 35 79 56 71 15 -5 44 19 44 36 0 6 9 11 19 11 11 0 26 6 33 13 7 8 20
16 28 20 8 3 -3 6 -25 7 -22 1 -58 8 -80 15 -31 11 -33 13 -10 10 170 -26 235
-23 235 10 0 18 21 19 127 4z m-3224 -61 c15 -5 27 -13 27 -17 0 -12 -21 -71
-26 -71 -14 0 -134 55 -134 62 0 4 12 8 27 8 24 0 25 1 9 13 -10 8 -15 19 -11
29 6 16 10 16 43 2 21 -9 49 -20 65 -26z m5500 27 c-3 -9 -8 -14 -10 -11 -3 3
-2 9 2 15 9 16 15 13 8 -4z m77 -44 c36 -6 59 -5 68 1 18 15 15 0 -7 -36 -37
-60 -91 -330 -91 -452 l0 -42 -42 10 c-51 11 -67 24 -19 14 26 -5 32 -3 28 8
-3 8 -1 17 6 20 7 2 3 5 -8 6 -37 3 -58 9 -68 19 -8 8 -7 11 4 12 33 2 54 9
57 19 3 8 8 7 18 -1 11 -9 14 -8 14 4 0 11 -15 20 -42 27 -24 6 -56 15 -72 20
-16 6 -30 10 -32 10 -1 0 -5 -10 -7 -22 -3 -18 -5 -16 -6 8 -1 40 35 241 55
302 24 71 41 93 67 87 12 -3 47 -10 77 -14z m-6284 -16 c27 -15 40 -23 29 -19
-46 15 -55 16 -55 6 0 -5 15 -19 33 -31 31 -20 31 -21 7 -21 -35 0 -18 -11
105 -64 170 -74 175 -76 193 -76 16 1 69 38 61 43 -2 2 -23 11 -47 22 -23 10
-41 20 -39 22 7 6 97 -36 97 -45 0 -5 -57 -69 -126 -143 -69 -74 -173 -188
-232 -254 -58 -66 -113 -128 -124 -138 -10 -10 -18 -21 -18 -26 0 -4 -11 -13
-25 -19 -14 -6 -25 -10 -25 -9 0 2 14 41 30 87 17 46 27 87 23 91 -4 4 -38 18
-74 32 l-67 24 -57 -138 c-32 -76 -64 -140 -71 -143 -24 -9 -28 -22 101 294
70 173 225 530 230 530 1 0 23 -11 51 -25z m6065 -26 c-5 -13 -10 -19 -10 -12
-1 15 10 45 15 40 3 -2 0 -15 -5 -28z m427 -18 c46 -5 85 -11 88 -14 3 -2 -4
-20 -16 -39 -50 -85 -89 -349 -65 -440 7 -27 8 -48 3 -48 -13 0 -25 38 -32
105 -7 56 -9 60 -34 61 -15 0 -53 4 -84 9 l-58 8 0 -32 c0 -27 3 -31 28 -32
15 0 36 -5 47 -10 15 -7 10 -8 -22 -6 -42 2 -49 -4 -44 -35 0 -5 -4 -8 -10 -8
-8 0 -10 42 -6 148 4 113 11 169 30 241 26 97 38 113 72 106 11 -3 57 -9 103
-14z m-6902 -6 c54 -10 114 -28 154 -48 65 -32 82 -55 61 -81 -9 -10 -22 -7
-69 16 -75 37 -172 52 -302 45 -172 -9 -254 -45 -248 -110 4 -39 60 -81 138
-103 82 -23 281 -29 358 -11 71 16 72 16 41 -59 -20 -48 -24 -52 -71 -63 -27
-6 -61 -11 -75 -11 l-25 0 4 -170 c3 -164 2 -170 -17 -171 -12 -1 -8 -4 10 -8
l30 -6 3 -133 3 -132 -28 0 c-120 0 -331 56 -365 97 -12 15 -11 15 10 4 33
-17 38 -7 7 13 -24 16 -25 21 -24 99 1 62 3 74 9 47 7 -31 7 -32 9 -7 0 15 7
27 14 28 6 0 2 5 -10 11 -39 19 -25 28 18 13 64 -23 69 -17 11 13 l-53 28 -2
157 -1 157 -40 26 c-69 45 -86 65 -86 101 0 38 10 42 28 12 7 -12 16 -18 19
-15 3 3 -2 12 -11 21 -9 10 -16 33 -16 57 0 35 6 47 40 80 107 101 275 137
476 103z m5187 8 c-7 -2 -19 -2 -25 0 -7 3 -2 5 12 5 14 0 19 -2 13 -5z
m-4570 -40 c37 -14 66 -27 64 -30 -5 -5 -167 57 -167 64 0 3 8 2 18 -2 9 -4
48 -18 85 -32z m4808 7 c597 -92 847 -136 876 -156 17 -10 23 -23 22 -47 -1
-22 -3 -25 -6 -10 -4 19 -8 21 -28 13 -12 -5 -26 -6 -29 -3 -3 4 -6 -9 -7 -28
l-1 -34 -8 33 c-14 59 39 45 -575 148 -422 71 -497 87 -200 45 77 -12 155 -23
173 -26 17 -3 32 -2 32 3 0 5 -105 26 -232 47 -214 34 -267 45 -226 45 8 0
102 -13 209 -30z m-1564 -12 c-3 -8 -6 -5 -6 6 -1 11 2 17 5 13 3 -3 4 -12 1
-19z m1280 16 c-3 -3 -12 -4 -19 -1 -8 3 -5 6 6 6 11 1 17 -2 13 -5z m-217
-11 c-8 -3 -28 -12 -45 -20 l-30 -14 24 21 c13 11 33 20 45 19 14 0 16 -2 6
-6z m293 0 c-7 -2 -21 -2 -30 0 -10 3 -4 5 12 5 17 0 24 -2 18 -5z m-1366 -55
c-3 -7 -5 -2 -5 12 0 14 2 19 5 13 2 -7 2 -19 0 -25z m1420 16 c-3 -3 -12 -4
-19 -1 -8 3 -5 6 6 6 11 1 17 -2 13 -5z m-1780 -105 c-3 -56 -8 -104 -11 -107
-3 -3 -6 36 -6 86 0 49 -3 97 -6 106 -4 11 -1 16 11 16 16 0 17 -10 12 -101z
m1840 95 c-3 -3 -12 -4 -19 -1 -8 3 -5 6 6 6 11 1 17 -2 13 -5z m66 -11 c-7
-2 -19 -2 -25 0 -7 3 -2 5 12 5 14 0 19 -2 13 -5z m65 -10 c-10 -2 -26 -2 -35
0 -10 3 -2 5 17 5 19 0 27 -2 18 -5z m65 -10 c-7 -2 -21 -2 -30 0 -10 3 -4 5
12 5 17 0 24 -2 18 -5z m60 -10 c-7 -2 -21 -2 -30 0 -10 3 -4 5 12 5 17 0 24
-2 18 -5z m-380 -10 c-7 -2 -19 -2 -25 0 -7 3 -2 5 12 5 14 0 19 -2 13 -5z
m440 0 c-7 -2 -19 -2 -25 0 -7 3 -2 5 12 5 14 0 19 -2 13 -5z m-2753 -13 c0
-5 -8 -10 -17 -10 -15 0 -16 2 -3 10 19 12 20 12 20 0z m2393 3 c-7 -2 -19 -2
-25 0 -7 3 -2 5 12 5 14 0 19 -2 13 -5z m420 0 c-7 -2 -19 -2 -25 0 -7 3 -2 5
12 5 14 0 19 -2 13 -5z m-2853 -7 c0 -2 -13 -6 -30 -8 -16 -3 -30 -1 -30 4 0
4 14 8 30 8 17 0 30 -2 30 -4z m2518 -3 c-10 -2 -26 -2 -35 0 -10 3 -2 5 17 5
19 0 27 -2 18 -5z m400 0 c-10 -2 -26 -2 -35 0 -10 3 -2 5 17 5 19 0 27 -2 18
-5z m-335 -10 c-7 -2 -21 -2 -30 0 -10 3 -4 5 12 5 17 0 24 -2 18 -5z m390 0
c-7 -2 -19 -2 -25 0 -7 3 -2 5 12 5 14 0 19 -2 13 -5z m-325 -10 c-10 -2 -26
-2 -35 0 -10 3 -2 5 17 5 19 0 27 -2 18 -5z m385 0 c-7 -2 -21 -2 -30 0 -10 3
-4 5 12 5 17 0 24 -2 18 -5z m-2983 -18 c0 -8 -4 -15 -10 -15 -5 0 -10 7 -10
15 0 8 5 15 10 15 6 0 10 -7 10 -15z m2609 -60 c566 -81 551 -77 551 -138 0
-47 -30 -239 -42 -269 -9 -24 -16 -28 -53 -28 -38 0 -767 93 -937 120 -37 5
-81 10 -98 10 -17 0 -33 6 -36 13 -3 8 4 70 16 138 35 208 40 229 57 229 9 0
253 -34 542 -75z m54 68 c-7 -2 -21 -2 -30 0 -10 3 -4 5 12 5 17 0 24 -2 18
-5z m380 0 c-7 -2 -21 -2 -30 0 -10 3 -4 5 12 5 17 0 24 -2 18 -5z m-310 -10
c-7 -2 -19 -2 -25 0 -7 3 -2 5 12 5 14 0 19 -2 13 -5z m370 0 c-7 -2 -21 -2
-30 0 -10 3 -4 5 12 5 17 0 24 -2 18 -5z m-300 -10 c-7 -2 -21 -2 -30 0 -10 3
-4 5 12 5 17 0 24 -2 18 -5z m360 0 c-7 -2 -19 -2 -25 0 -7 3 -2 5 12 5 14 0
19 -2 13 -5z m-290 -10 c-7 -2 -21 -2 -30 0 -10 3 -4 5 12 5 17 0 24 -2 18 -5z
m354 1 c-3 -3 -12 -4 -19 -1 -8 3 -5 6 6 6 11 1 17 -2 13 -5z m-294 -11 c-7
-2 -19 -2 -25 0 -7 3 -2 5 12 5 14 0 19 -2 13 -5z m-5003 -18 c16 -8 71 -30
123 -49 124 -45 158 -63 151 -80 -3 -8 -27 -17 -55 -21 -47 -7 -63 -19 -36
-28 6 -2 -4 -7 -23 -10 -25 -5 -40 -16 -52 -37 -13 -24 -24 -30 -50 -30 -44 0
-26 -14 47 -35 33 -9 65 -19 70 -20 6 -2 -10 -4 -35 -4 -25 0 -66 6 -92 14
-27 8 -48 10 -48 6 0 -5 9 -11 20 -14 22 -6 28 -36 8 -38 -7 -1 -38 -3 -68 -4
-30 -1 -72 -7 -92 -12 -27 -8 -38 -8 -42 0 -2 7 -5 -17 -5 -53 -1 -61 1 -66
25 -77 21 -10 33 -9 63 3 40 16 197 104 305 171 38 24 71 41 73 39 3 -2 -7
-15 -21 -29 -14 -15 -26 -31 -26 -37 0 -5 -6 -10 -13 -10 -7 0 -37 -16 -67
-35 -30 -19 -92 -54 -138 -77 -46 -23 -80 -44 -75 -45 5 -2 22 3 38 11 27 14
55 12 55 -4 0 -5 -10 -10 -22 -12 -14 -2 4 -10 47 -21 39 -10 84 -22 100 -27
l30 -8 -35 -1 c-19 0 -62 5 -95 13 -106 24 -177 28 -223 12 l-42 -15 0 147
c-1 81 -5 167 -10 192 -7 39 -5 49 15 75 41 54 147 165 156 165 6 0 23 -7 39
-15z m2258 -289 c-1 -183 -4 -252 -8 -186 -6 115 -17 98 -23 -35 -2 -38 -4 63
-5 227 -2 292 -2 296 18 291 19 -5 20 -13 18 -297z m652 294 c0 -5 -4 -10 -10
-10 -5 0 -10 5 -10 10 0 6 5 10 10 10 6 0 10 -4 10 -10z m2163 3 c-7 -2 -21
-2 -30 0 -10 3 -4 5 12 5 17 0 24 -2 18 -5z m-3223 -119 c0 -2 -19 -4 -42 -3
-31 0 -37 3 -24 8 18 7 66 3 66 -5z m3807 -56 c-2 -13 -4 -3 -4 22 0 25 2 35
4 23 2 -13 2 -33 0 -45z m-5341 29 c4 -4 -2 -7 -14 -7 -12 0 -22 4 -22 9 0 10
26 9 36 -2z m-171 -105 c-3 -3 -11 0 -18 7 -9 10 -8 11 6 5 10 -3 15 -9 12
-12z m213 -6 c-24 -21 -25 -26 -13 -42 9 -12 14 -14 15 -6 0 9 5 10 19 2 11
-5 39 -10 63 -11 l43 -1 -60 -13 c-33 -7 -68 -16 -77 -20 -11 -4 -20 0 -27 14
-18 33 -12 55 22 79 41 29 49 28 15 -2z m3739 -92 c-3 -3 -12 -4 -19 -1 -8 3
-5 6 6 6 11 1 17 -2 13 -5z m-2237 -15 c0 -16 -22 -20 -60 -14 -55 9 -50 20
10 21 28 0 50 -3 50 -7z m2408 -6 c-10 -2 -28 -2 -40 0 -13 2 -5 4 17 4 22 1
32 -1 23 -4z m-140 -10 c-10 -2 -28 -2 -40 0 -13 2 -5 4 17 4 22 1 32 -1 23
-4z m210 0 c-10 -2 -26 -2 -35 0 -10 3 -2 5 17 5 19 0 27 -2 18 -5z m-3775
-17 c18 1 24 -2 16 -7 -8 -5 3 -11 30 -19 29 -7 45 -18 48 -31 4 -13 20 -24
49 -31 29 -8 40 -15 31 -21 -7 -5 -3 -6 11 -2 12 4 37 2 55 -4 17 -5 52 -15
76 -21 30 -8 40 -14 31 -20 -12 -7 38 -21 95 -25 11 -1 34 -7 50 -14 42 -17
135 -41 161 -41 12 0 42 11 65 25 24 14 49 25 54 24 6 0 -3 -7 -18 -15 -38
-21 -30 -26 17 -12 46 14 153 -4 173 -30 12 -15 12 -13 7 12 -5 19 -3 27 3 23
6 -4 13 -19 16 -35 8 -39 38 -50 147 -53 238 -7 271 -1 298 48 7 11 29 16 97
17 74 2 91 0 107 -16 10 -10 18 -14 18 -9 0 8 21 13 105 26 24 4 26 3 10 -4
-15 -8 -9 -10 30 -10 28 -1 61 5 75 12 14 8 48 19 75 26 27 7 52 16 55 21 3 4
46 27 95 50 74 35 103 43 164 46 40 2 77 7 82 10 14 9 10 24 -5 18 -24 -9 -28
14 -4 28 13 7 26 11 31 10 4 -1 7 3 7 9 0 5 25 -11 55 -37 30 -26 55 -52 55
-56 0 -5 -15 -6 -34 -3 -28 6 -36 3 -45 -14 -10 -18 -9 -20 6 -15 13 5 12 2
-4 -10 -20 -15 -25 -14 -86 15 -74 34 -139 37 -145 7 -2 -10 15 -43 37 -74
l41 -57 -77 -34 c-42 -18 -77 -33 -79 -33 -1 0 -4 8 -6 18 -3 11 -22 32 -43
47 -28 22 -48 29 -83 29 l-47 1 1 -35 c0 -19 4 -51 8 -70 l7 -36 -71 -18 -72
-19 -57 57 c-49 48 -62 56 -94 56 -67 0 -79 -13 -76 -83 2 -33 -2 -62 -7 -63
-5 -1 -35 -5 -66 -9 l-58 -6 0 -170 c0 -169 0 -169 -22 -169 -48 0 -49 7 -52
188 -3 170 -3 172 -32 219 -27 44 -33 48 -73 51 -60 4 -73 -11 -95 -109 -6
-25 -6 -26 -83 -21 l-78 4 0 -156 c0 -86 -2 -156 -5 -156 -24 0 -30 34 -30
159 0 142 -13 256 -32 279 -7 7 -26 12 -46 10 -30 -3 -41 -11 -73 -58 l-38
-55 -1 -151 0 -151 -29 -6 c-54 -11 -145 25 -136 54 3 9 1 20 -5 24 -8 5 -11
63 -9 194 l3 186 -26 3 c-30 4 -71 -15 -117 -54 l-31 -26 0 -160 0 -159 -22 7
c-45 14 -68 24 -68 29 0 4 10 3 23 0 17 -6 19 -5 10 5 -6 7 -23 13 -37 13 -15
0 -27 6 -30 16 -11 37 -10 317 1 336 18 33 25 82 13 90 -14 9 -103 -21 -134
-46 l-26 -20 0 -175 c0 -109 -4 -174 -10 -174 -5 0 -10 5 -10 10 0 6 -10 10
-23 10 -43 0 -47 16 -47 166 0 105 -3 144 -12 147 -30 10 3 17 41 8 23 -5 38
-5 35 0 -3 5 -12 9 -19 9 -26 0 -95 32 -95 44 0 7 18 30 40 51 30 29 38 44 34
60 -4 11 -11 23 -16 26 -12 8 -78 -6 -131 -26 -35 -14 -41 -14 -77 5 -22 11
-40 26 -40 33 0 6 22 26 48 43 38 26 53 31 82 26 19 -4 48 -6 63 -6z m3772 -1
c126 -15 185 -18 125 -5 -34 7 -34 7 -5 8 17 0 68 -6 115 -13 l85 -14 -80 4
c-107 4 -54 -5 210 -40 410 -54 416 -55 340 -50 -38 2 -160 15 -270 30 -110
15 -315 42 -455 60 -140 18 -239 33 -220 34 19 0 89 -6 155 -14z m73 8 c-10
-2 -26 -2 -35 0 -10 3 -2 5 17 5 19 0 27 -2 18 -5z m-4177 -103 c3 -88 2 -95
-16 -97 -11 -2 -14 0 -7 3 8 4 12 35 12 102 0 52 2 93 4 91 2 -2 6 -47 7 -99z
m4529 61 c33 -6 37 -9 15 -9 -16 0 -50 3 -75 7 -33 6 -37 9 -15 9 17 0 50 -3
75 -7z m-2890 -21 c-20 -13 -117 -13 -104 -1 8 9 103 20 114 13 2 -2 -2 -7
-10 -12z m2988 3 c-10 -2 -26 -2 -35 0 -10 3 -2 5 17 5 19 0 27 -2 18 -5z m80
-10 c-10 -2 -26 -2 -35 0 -10 3 -2 5 17 5 19 0 27 -2 18 -5z m80 -10 c-10 -2
-28 -2 -40 0 -13 2 -5 4 17 4 22 1 32 -1 23 -4z m-4001 -35 c-3 -7 -5 -2 -5
12 0 14 2 19 5 13 2 -7 2 -19 0 -25z m811 25 c-10 -2 -26 -2 -35 0 -10 3 -2 5
17 5 19 0 27 -2 18 -5z m3317 -3 c12 -5 -4 -6 -40 -3 -33 3 -62 7 -64 9 -9 8
85 2 104 -6z m-3300 -30 c-28 -12 -85 -12 -85 0 0 6 24 10 53 9 38 0 47 -3 32
-9z m2186 -5 c52 -28 63 -83 23 -120 -50 -46 -166 -25 -180 32 -19 74 78 128
157 88z m-2530 -42 c12 -16 12 -17 -1 -6 -9 6 -36 13 -60 16 l-45 4 46 1 c34
2 50 -3 60 -15z m324 7 c-3 -5 -11 -10 -16 -10 -6 0 -7 5 -4 10 3 6 11 10 16
10 6 0 7 -4 4 -10z m43 -81 c-7 -5 -35 -8 -63 -8 -57 1 -52 5 18 14 l47 6 2
42 1 42 4 -44 c3 -29 0 -47 -9 -52z m2568 54 c46 -30 20 -97 -41 -109 -66 -12
-123 33 -105 81 20 54 88 67 146 28z m-2643 0 c-7 -2 -19 -2 -25 0 -7 3 -2 5
12 5 14 0 19 -2 13 -5z m-1226 -265 c-1 -40 -3 -8 -3 72 0 80 2 112 3 73 2
-40 2 -106 0 -145z m-110 69 c-2 -23 -3 -1 -3 48 0 50 1 68 3 42 2 -26 2 -67
0 -90z m0 -69 c-3 -8 -6 -5 -6 6 -1 11 2 17 5 13 3 -3 4 -12 1 -19z m1180 -44
c-3 -3 -12 -4 -19 -1 -8 3 -5 6 6 6 11 1 17 -2 13 -5z m50 -41 c-3 -10 -5 -2
-5 17 0 19 2 27 5 18 2 -10 2 -26 0 -35z m-1714 -28 c37 -8 74 -12 82 -8 8 3
15 0 15 -7 0 -9 -10 -11 -32 -7 -18 3 -59 11 -92 16 -32 6 -61 13 -64 16 -9 8
19 6 91 -10z m1714 -42 c-3 -10 -5 -4 -5 12 0 17 2 24 5 18 2 -7 2 -21 0 -30z
m-1487 -4 c16 -5 6 -6 -25 -2 -27 3 -61 10 -75 14 -16 5 -6 6 25 2 27 -3 61
-10 75 -14z m4248 -51 c-14 -14 -88 -19 -88 -7 0 7 27 12 83 17 15 2 16 0 5
-10z m-375 -5 c-7 -2 -19 -2 -25 0 -7 3 -2 5 12 5 14 0 19 -2 13 -5z m-1320
-50 c-7 -2 -19 -2 -25 0 -7 3 -2 5 12 5 14 0 19 -2 13 -5z m-56 -9 c-3 -3 -12
-4 -19 -1 -8 3 -5 6 6 6 11 1 17 -2 13 -5z m338 -25 c-4 -5 -12 -9 -18 -8 -9
0 -8 2 1 6 6 2 9 10 6 15 -4 7 -2 8 5 4 6 -4 9 -12 6 -17z m-1412 -36 c-7 -2
-21 -2 -30 0 -10 3 -4 5 12 5 17 0 24 -2 18 -5z m60 0 c-7 -2 -21 -2 -30 0
-10 3 -4 5 12 5 17 0 24 -2 18 -5z m672 -23 l30 -8 -35 -1 c-19 0 -42 4 -50 9
-12 8 -11 10 5 9 11 -1 34 -5 50 -9z"/>
<path d="M2150 5615 c-6 -14 -14 -36 -20 -50 -5 -14 -6 -25 -1 -25 5 0 11 8
14 18 3 9 10 32 15 50 12 38 6 43 -8 7z"/>
<path d="M2200 5590 c0 -5 5 -10 10 -10 6 0 10 5 10 10 0 6 -4 10 -10 10 -5 0
-10 -4 -10 -10z"/>
<path d="M2437 5483 c-4 -3 -7 -11 -7 -17 0 -6 5 -5 12 2 6 6 9 14 7 17 -3 3
-9 2 -12 -2z"/>
<path d="M2346 5463 c-6 -14 -5 -15 5 -6 7 7 10 15 7 18 -3 3 -9 -2 -12 -12z"/>
<path d="M1922 5458 c-5 -7 -13 -24 -17 -38 -7 -24 -6 -24 7 -5 25 35 34 72
10 43z"/>
<path d="M2590 5447 c0 -1 -4 -18 -10 -36 -5 -20 -6 -31 -1 -25 12 11 25 64
17 64 -3 0 -6 -1 -6 -3z"/>
<path d="M2146 5353 c-6 -14 -5 -15 5 -6 7 7 10 15 7 18 -3 3 -9 -2 -12 -12z"/>
<path d="M2180 5321 c-12 -24 -13 -34 -1 -27 9 6 22 46 15 46 -2 0 -8 -9 -14
-19z"/>
<path d="M2581 5158 c-15 -42 -6 -48 13 -9 18 35 19 41 7 41 -5 0 -14 -14 -20
-32z"/>
<path d="M3655 5320 c3 -5 11 -10 16 -10 6 0 7 5 4 10 -3 6 -11 10 -16 10 -6
0 -7 -4 -4 -10z"/>
<path d="M1860 5304 c0 -8 5 -12 10 -9 6 3 10 10 10 16 0 5 -4 9 -10 9 -5 0
-10 -7 -10 -16z"/>
<path d="M3071 5217 c-24 -55 -44 -127 -38 -133 2 -3 18 35 35 83 33 95 35
124 3 50z"/>
<path d="M3551 4995 c-18 -42 -31 -81 -29 -87 2 -6 18 26 36 72 17 46 30 85
28 87 -2 2 -18 -30 -35 -72z"/>
<path d="M6248 5023 c7 -3 16 -2 19 1 4 3 -2 6 -13 5 -11 0 -14 -3 -6 -6z"/>
<path d="M8460 4861 c0 -6 5 -13 10 -16 6 -3 10 1 10 9 0 9 -4 16 -10 16 -5 0
-10 -4 -10 -9z"/>
<path d="M8544 4852 c4 -8 0 -12 -11 -12 -10 0 -23 -8 -30 -18 -10 -17 -5 -19
46 -30 62 -12 123 -21 104 -15 -7 3 -13 8 -13 13 0 4 -15 6 -32 4 -31 -4 -32
-4 -14 11 11 8 15 15 10 15 -6 0 -14 -3 -18 -7 -16 -17 -33 -10 -30 13 1 13
-3 27 -8 31 -7 3 -8 1 -4 -5z m-4 -32 c0 -5 -2 -10 -4 -10 -3 0 -8 5 -11 10
-3 6 -1 10 4 10 6 0 11 -4 11 -10z"/>
<path d="M6473 4819 c11 -7 23 -7 35 0 14 9 11 10 -18 10 -29 0 -32 -1 -17
-10z"/>
<path d="M6465 4802 c-8 -8 -5 -226 3 -239 4 -7 48 -17 97 -23 113 -13 120
-12 65 6 -25 7 -54 13 -65 11 -13 -1 -19 3 -17 14 1 8 -8 26 -19 38 -18 19
-19 25 -8 32 12 7 12 12 1 30 -8 12 -10 24 -5 28 12 9 15 31 3 31 -5 0 -10 5
-10 11 0 5 5 7 10 4 6 -4 10 6 10 23 0 25 -4 30 -30 34 -17 3 -32 2 -35 0z"/>
<path d="M3360 4827 c14 -7 37 -21 52 -31 17 -11 28 -13 33 -6 4 6 -13 19 -40
30 -52 22 -84 27 -45 7z"/>
<path d="M8923 4533 c9 -2 23 -2 30 0 6 3 -1 5 -18 5 -16 0 -22 -2 -12 -5z"/>
<path d="M9068 4513 c7 -3 16 -2 19 1 4 3 -2 6 -13 5 -11 0 -14 -3 -6 -6z"/>
<path d="M9202 4460 c0 -14 2 -19 5 -12 2 6 2 18 0 25 -3 6 -5 1 -5 -13z"/>
<path d="M8010 4639 c0 -5 11 -9 24 -9 13 0 39 -3 57 -6 19 -4 31 -4 28 0 -10
11 -109 24 -109 15z"/>
<path d="M8215 4610 c-3 -5 -2 -10 4 -10 5 0 13 5 16 10 3 6 2 10 -4 10 -5 0
-13 -4 -16 -10z"/>
<path d="M8388 4583 c7 -3 16 -2 19 1 4 3 -2 6 -13 5 -11 0 -14 -3 -6 -6z"/>
<path d="M7345 4481 c-3 -2 -5 -11 -5 -19 0 -10 7 -13 22 -9 38 10 68 -3 68
-29 0 -20 -44 -74 -61 -74 -3 0 -18 -10 -32 -23 -32 -27 -47 -85 -26 -98 18
-11 89 -12 89 0 0 11 -25 21 -51 21 -38 0 -20 36 40 78 48 34 60 49 69 82 9
37 8 42 -16 60 -23 18 -83 25 -97 11z"/>
<path d="M7518 4448 c-10 -8 -26 -48 -37 -95 -27 -116 -16 -153 48 -153 21 0
45 6 54 13 24 17 65 202 51 225 -14 21 -92 28 -116 10z m92 -32 c0 -14 -25
-132 -36 -168 -3 -12 -15 -18 -32 -18 -53 0 -56 9 -37 101 9 46 19 87 22 92 2
4 22 7 44 7 27 0 39 -4 39 -14z"/>
<path d="M7750 4420 c-8 -5 -24 -53 -36 -107 -20 -87 -21 -101 -8 -120 11 -18
24 -23 58 -23 40 0 45 3 60 34 9 18 23 66 31 106 14 66 14 75 0 96 -12 18 -25
24 -53 24 -20 0 -44 -4 -52 -10z m84 -67 c-13 -91 -37 -148 -62 -151 -26 -4
-53 14 -47 31 2 7 11 47 20 90 l16 77 40 0 40 0 -7 -47z"/>
<path d="M7912 4392 c-22 -22 -57 -180 -48 -217 6 -25 30 -32 91 -26 30 3 35
12 60 112 21 84 22 96 9 117 -8 12 -20 22 -27 23 -6 0 -24 3 -39 5 -18 3 -34
-2 -46 -14z m81 -68 c-1 -23 -9 -65 -17 -95 -16 -54 -17 -55 -51 -51 -40 5
-41 10 -24 94 19 95 26 106 62 98 30 -6 32 -9 30 -46z"/>
<path d="M8084 4225 c-18 -59 -21 -84 -9 -89 19 -7 25 3 25 40 0 18 5 36 12
40 8 5 10 -7 5 -45 -8 -65 13 -67 27 -3 12 59 26 53 19 -8 -4 -32 -2 -50 5
-50 13 0 37 99 26 110 -14 12 -106 17 -110 5z"/>
<path d="M8211 4168 c-7 -28 -9 -53 -6 -56 10 -10 27 15 34 50 4 18 11 31 16
30 6 -2 9 -7 8 -10 -14 -57 -14 -82 0 -82 9 0 18 18 25 53 5 28 9 53 8 54 -1
2 -19 5 -38 7 l-37 5 -10 -51z"/>
<path d="M2990 3980 c-9 -6 -10 -10 -3 -10 6 0 15 5 18 10 8 12 4 12 -15 0z"/>
<path d="M5401 4464 c0 -11 3 -14 6 -6 3 7 2 16 -1 19 -3 4 -6 -2 -5 -13z"/>
<path d="M5392 4305 c1 -25 6 -45 10 -45 4 0 8 20 8 45 0 25 -4 45 -10 45 -5
0 -9 -20 -8 -45z"/>
<path d="M5395 4195 c1 -30 4 -57 8 -61 4 -4 7 20 7 54 0 34 -3 62 -8 62 -4 0
-7 -25 -7 -55z"/>
<path d="M4018 3753 c7 -3 16 -2 19 1 4 3 -2 6 -13 5 -11 0 -14 -3 -6 -6z"/>
<path d="M4088 3733 c7 -3 16 -2 19 1 4 3 -2 6 -13 5 -11 0 -14 -3 -6 -6z"/>
<path d="M4360 3530 c0 -5 5 -10 11 -10 5 0 7 5 4 10 -3 6 -8 10 -11 10 -2 0
-4 -4 -4 -10z"/>
<path d="M5082 3374 c-2 -34 2 -43 18 -47 11 -3 20 -1 20 4 0 5 -6 9 -14 9
-10 0 -16 13 -19 38 l-4 37 -1 -41z"/>
<path d="M2783 5969 c-22 -4 -60 -18 -83 -31 -24 -13 -53 -29 -65 -35 -12 -7
-29 -21 -36 -30 -13 -17 -13 -17 13 0 51 32 70 14 33 -33 -27 -34 -67 -148
-60 -171 4 -17 3 -20 -3 -10 -7 10 -11 10 -17 1 -10 -15 -3 -20 42 -31 65 -15
93 -11 102 14 5 12 23 63 41 112 18 50 43 114 57 144 31 70 29 79 -24 70z"/>
<path d="M2460 5670 c0 -5 5 -10 10 -10 6 0 10 5 10 10 0 6 -4 10 -10 10 -5 0
-10 -4 -10 -10z"/>
<path d="M2490 5656 c0 -2 7 -7 16 -10 8 -3 12 -2 9 4 -6 10 -25 14 -25 6z"/>
<path d="M2570 5616 c0 -2 7 -7 16 -10 8 -3 12 -2 9 4 -6 10 -25 14 -25 6z"/>
<path d="M5940 5553 c11 -23 58 -53 82 -53 7 1 -3 8 -22 16 -19 8 -43 25 -53
37 l-18 22 11 -22z"/>
<path d="M4910 5461 c0 -57 3 -102 6 -99 9 10 12 176 3 190 -5 7 -9 -32 -9
-91z"/>
<path d="M4566 5399 c-60 -14 -69 -25 -50 -61 18 -35 20 -31 -30 -52 -53 -22
-150 -20 -221 4 -32 11 -69 20 -83 20 -32 0 -190 -52 -174 -58 7 -2 48 8 92
23 l80 27 74 -22 c88 -26 209 -25 263 3 l32 17 -20 34 c-25 42 -21 45 85 61
61 10 70 13 36 13 -25 0 -63 -4 -84 -9z"/>
<path d="M5145 5359 c-4 -6 -5 -12 -2 -15 2 -3 7 2 10 11 7 17 1 20 -8 4z"/>
<path d="M5567 5339 c7 -7 15 -10 18 -7 3 3 -2 9 -12 12 -14 6 -15 5 -6 -5z"/>
<path d="M5108 5333 c7 -3 16 -2 19 1 4 3 -2 6 -13 5 -11 0 -14 -3 -6 -6z"/>
<path d="M6460 5260 c0 -5 7 -10 15 -10 8 0 15 5 15 10 0 6 -7 10 -15 10 -8 0
-15 -4 -15 -10z"/>
<path d="M4885 5240 c-11 -5 -41 -9 -66 -9 -107 -2 -288 -50 -397 -105 -242
-123 -183 -297 126 -375 141 -35 244 -44 432 -38 196 6 298 25 421 77 293 123
275 296 -41 398 -105 34 -340 68 -340 50 0 -4 18 -8 41 -8 60 0 327 -55 317
-66 -3 -2 -45 5 -94 16 -113 25 -162 25 -69 0 56 -16 61 -18 25 -14 -25 3 -76
7 -115 9 -68 4 -69 4 -20 -6 28 -5 84 -18 125 -29 l75 -19 -55 5 c-30 2 -77 7
-104 9 -72 7 -48 -7 47 -27 l82 -17 -95 4 c-93 4 -94 4 -50 -9 25 -8 70 -18
100 -24 50 -8 48 -9 -35 -5 -62 2 -84 0 -70 -6 11 -5 30 -10 42 -10 12 -1 25
-5 28 -11 4 -6 -5 -8 -22 -5 -15 2 -50 6 -78 9 -45 4 -47 3 -20 -6 17 -6 33
-15 36 -20 3 -5 9 -9 13 -9 29 4 56 -1 56 -10 0 -8 -15 -10 -44 -7 -66 8 -78
-8 -15 -20 l54 -10 -62 -1 c-63 -1 -91 -21 -30 -21 17 0 37 -4 44 -8 6 -4 -30
-6 -80 -6 -120 2 -114 1 -137 24 -17 17 -34 21 -98 21 -80 1 -78 9 8 27 l45
10 -70 2 -70 2 64 14 c92 20 89 27 -9 21 -94 -7 -91 -3 20 18 l75 14 -110 -3
-110 -3 65 13 c36 7 76 13 90 14 14 0 32 5 40 11 11 7 -14 9 -85 5 l-100 -5
85 18 85 19 -55 1 c-40 1 -51 4 -40 11 8 5 29 10 45 11 27 2 25 3 -10 9 -29 5
-33 8 -15 9 14 1 34 6 45 11 13 6 -7 7 -55 3 -41 -3 -72 -3 -69 1 8 8 211 35
222 29 4 -2 7 3 7 11 0 9 -1 16 -2 15 -2 0 -12 -4 -23 -9z m-222 -57 c-7 -2
-19 -2 -25 0 -7 3 -2 5 12 5 14 0 19 -2 13 -5z m660 -30 c-7 -2 -19 -2 -25 0
-7 3 -2 5 12 5 14 0 19 -2 13 -5z m32 -43 c13 -5 14 -9 5 -9 -8 0 -24 4 -35 9
-13 5 -14 9 -5 9 8 0 24 -4 35 -9z m-25 -30 c20 -6 21 -8 5 -8 -11 0 -29 3
-40 8 -25 11 1 11 35 0z m-617 -87 c-7 -2 -19 -2 -25 0 -7 3 -2 5 12 5 14 0
19 -2 13 -5z m145 -50 c-10 -2 -26 -2 -35 0 -10 3 -2 5 17 5 19 0 27 -2 18 -5z
m207 -55 c10 -11 -80 -6 -215 12 -47 6 -28 7 70 3 74 -3 140 -10 145 -15z
m-25 -32 c14 -2 -12 -4 -57 -5 -46 0 -83 2 -83 7 0 6 81 6 140 -2z m-86 -35
c3 -5 -16 -6 -42 -4 -69 7 -74 11 -15 12 28 1 54 -3 57 -8z m84 -8 c-10 -2
-26 -2 -35 0 -10 3 -2 5 17 5 19 0 27 -2 18 -5z"/>
<path d="M5088 5203 c12 -2 30 -2 40 0 9 3 -1 5 -23 4 -22 0 -30 -2 -17 -4z"/>
<path d="M4902 5180 c0 -14 2 -19 5 -12 2 6 2 18 0 25 -3 6 -5 1 -5 -13z"/>
<path d="M6033 5033 c15 -2 39 -2 55 0 15 2 2 4 -28 4 -30 0 -43 -2 -27 -4z"/>
<path d="M5780 4953 c-5 -21 -19 -51 -30 -68 -11 -16 -20 -33 -20 -37 0 -5 36
-8 79 -8 l80 0 31 38 c17 20 34 51 39 67 7 30 7 30 -38 37 -25 3 -65 7 -88 7
-41 1 -43 -1 -53 -36z"/>
<path d="M7583 4849 c-15 -6 -14 -8 7 -8 14 0 32 4 40 9 12 7 10 9 -7 7 -12 0
-30 -4 -40 -8z"/>
<path d="M7638 4833 c7 -3 16 -2 19 1 4 3 -2 6 -13 5 -11 0 -14 -3 -6 -6z"/>
<path d="M4152 4411 c-1 -63 1 -112 4 -109 3 4 5 34 5 67 l0 61 30 -16 c43
-22 47 -11 5 15 -28 18 -36 29 -39 59 -2 20 -4 -14 -5 -77z"/>
<path d="M4774 4443 c7 -7 87 -5 95 3 2 2 -20 4 -49 4 -29 0 -50 -3 -46 -7z"/>
<path d="M4783 4385 c0 -22 2 -30 4 -17 2 12 2 30 0 40 -3 9 -5 -1 -4 -23z"/>
<path d="M4185 4350 c3 -5 15 -10 26 -10 11 0 17 5 14 10 -3 6 -15 10 -26 10
-11 0 -17 -4 -14 -10z"/>
<path d="M4779 4324 c-3 -10 -2 -32 1 -49 l6 -30 5 31 c3 17 2 40 -1 50 -6 17
-7 17 -11 -2z"/>
<path d="M4210 4320 c0 -5 5 -10 11 -10 5 0 7 5 4 10 -3 6 -8 10 -11 10 -2 0
-4 -4 -4 -10z"/>
<path d="M4184 4296 c11 -9 27 -16 35 -16 21 0 2 16 -29 24 -24 7 -24 6 -6 -8z"/>
<path d="M4910 4291 c0 -11 10 -12 46 -7 26 3 53 6 60 6 8 0 14 5 14 10 0 6
-25 9 -60 8 -43 -2 -60 -7 -60 -17z"/>
<path d="M4910 4235 c0 -24 3 -25 60 -25 38 0 60 4 60 11 0 7 -12 10 -32 7
-18 -3 -42 -2 -53 3 -14 5 -4 8 33 8 28 1 52 6 52 11 0 6 -27 10 -60 10 -57 0
-60 -1 -60 -25z"/>
<path d="M4780 4228 c-4 -94 -2 -270 3 -275 4 -3 7 60 7 140 0 81 -2 147 -5
147 -3 0 -5 -6 -5 -12z"/>
<path d="M3927 4119 c7 -7 15 -10 18 -7 3 3 -2 9 -12 12 -14 6 -15 5 -6 -5z"/>
<path d="M1609 4026 c-123 -76 -146 -100 -30 -31 42 25 66 34 69 27 7 -21 35
-14 29 8 -3 10 0 21 6 23 7 2 7 6 2 9 -6 3 -40 -13 -76 -36z"/>
<path d="M1696 3987 c3 -10 9 -15 12 -12 3 3 0 11 -7 18 -10 9 -11 8 -5 -6z"/>
<path d="M4777 3927 c-11 -29 -9 -43 4 -30 6 6 9 19 7 29 -3 18 -4 18 -11 1z"/>
<path d="M1345 3556 l0 -96 85 -19 c101 -24 294 -62 1050 -211 311 -61 711
-141 890 -177 179 -36 393 -78 475 -95 83 -16 241 -47 352 -68 292 -58 291
-47 -1 16 -65 14 -128 31 -140 39 -11 7 -36 16 -54 20 -18 4 -30 10 -28 14 4
7 -17 11 -61 11 -28 0 -29 8 -5 27 12 11 13 13 2 10 -8 -2 -24 0 -35 5 -19 8
-19 8 1 5 27 -5 55 10 49 26 -3 6 -1 18 4 26 8 13 12 13 27 0 10 -8 15 -9 11
-2 -4 6 -1 13 5 16 7 2 -6 7 -29 11 -23 4 -48 4 -55 0 -10 -5 -10 -4 -1 6 13
14 -7 17 467 -71 147 -28 271 -48 274 -45 3 3 1 6 -4 6 -6 0 -275 52 -599 116
-673 132 -1133 221 -1515 294 -146 28 -301 60 -345 70 -64 16 -658 133 -790
157 l-30 5 0 -96z m2482 -412 c-3 -3 -12 -4 -19 -1 -8 3 -5 6 6 6 11 1 17 -2
13 -5z m46 -11 c-7 -2 -19 -2 -25 0 -7 3 -2 5 12 5 14 0 19 -2 13 -5z m34 -55
c-3 -8 -6 -5 -6 6 -1 11 2 17 5 13 3 -3 4 -12 1 -19z"/>
<path d="M2842 3474 c-35 -25 -62 -48 -60 -49 6 -6 261 -55 282 -54 12 0 -28
11 -89 23 -181 37 -191 41 -129 52 16 3 32 10 36 16 4 8 12 8 24 -3 11 -9 15
-9 10 -1 -5 8 0 12 14 12 11 0 28 5 38 11 14 9 71 1 252 -34 284 -56 316 -61
310 -54 -3 3 -88 22 -190 42 -102 20 -234 47 -294 61 -60 13 -116 24 -125 24
-9 0 -44 -21 -79 -46z"/>
<path d="M3613 3433 c9 -2 23 -2 30 0 6 3 -1 5 -18 5 -16 0 -22 -2 -12 -5z"/>
<path d="M3714 3425 c-19 -14 -19 -14 2 -15 12 0 21 6 21 15 0 18 1 18 -23 0z"/>
<path d="M3768 3403 c7 -3 16 -2 19 1 4 3 -2 6 -13 5 -11 0 -14 -3 -6 -6z"/>
<path d="M3558 3383 c7 -3 16 -2 19 1 4 3 -2 6 -13 5 -11 0 -14 -3 -6 -6z"/>
<path d="M3098 3363 c7 -3 16 -2 19 1 4 3 -2 6 -13 5 -11 0 -14 -3 -6 -6z"/>
<path d="M3158 3353 c7 -3 16 -2 19 1 4 3 -2 6 -13 5 -11 0 -14 -3 -6 -6z"/>
<path d="M6206 3290 c-58 -40 -109 -77 -113 -83 -7 -12 3 -7 77 43 43 29 62
36 87 33 18 -3 31 -8 29 -12 -2 -3 2 -12 10 -19 8 -7 14 -9 14 -3 0 13 25 20
50 14 15 -4 18 -8 9 -13 -8 -5 -3 -8 12 -8 35 0 78 -8 86 -15 3 -4 0 -7 -7 -7
-7 0 -10 -3 -6 -7 3 -4 29 -6 56 -4 42 2 49 0 44 -14 -4 -9 -3 -15 2 -14 30 5
54 -3 54 -18 0 -10 4 -14 8 -8 4 6 16 10 27 11 11 1 27 3 35 5 8 2 14 -2 13
-8 -2 -7 2 -13 7 -13 6 0 10 5 10 10 0 6 8 10 18 10 10 0 22 3 28 8 5 4 -13
-13 -40 -38 -26 -25 -62 -53 -80 -62 -17 -10 -24 -18 -16 -18 8 0 40 19 70 42
30 23 88 66 128 94 l72 53 -52 10 c-29 6 -150 29 -268 51 -118 22 -224 42
-236 45 -15 5 -49 -13 -128 -65z"/>
<path d="M3225 3340 c17 -4 41 -8 55 -8 22 0 22 1 -5 8 -16 4 -41 8 -55 8 -22
0 -22 -1 5 -8z"/>
<path d="M3318 3323 c6 -2 18 -2 25 0 6 3 1 5 -13 5 -14 0 -19 -2 -12 -5z"/>
<path d="M3858 3323 c7 -3 16 -2 19 1 4 3 -2 6 -13 5 -11 0 -14 -3 -6 -6z"/>
<path d="M3371 3316 c2 -2 22 -6 44 -9 28 -5 34 -4 20 3 -19 8 -73 14 -64 6z"/>
<path d="M3908 3313 c7 -3 16 -2 19 1 4 3 -2 6 -13 5 -11 0 -14 -3 -6 -6z"/>
<path d="M3958 3303 c7 -3 16 -2 19 1 4 3 -2 6 -13 5 -11 0 -14 -3 -6 -6z"/>
<path d="M4008 3293 c7 -3 16 -2 19 1 4 3 -2 6 -13 5 -11 0 -14 -3 -6 -6z"/>
<path d="M5418 3243 c7 -3 16 -2 19 1 4 3 -2 6 -13 5 -11 0 -14 -3 -6 -6z"/>
<path d="M5458 3233 c7 -3 16 -2 19 1 4 3 -2 6 -13 5 -11 0 -14 -3 -6 -6z"/>
<path d="M6933 3223 c-27 -14 -197 -137 -221 -160 -23 -22 -5 -14 41 17 44 30
67 37 67 23 0 -15 49 -11 54 4 6 13 9 13 31 -1 13 -9 36 -17 49 -18 30 -3 21
-17 -28 -47 -27 -17 -38 -18 -84 -10 -30 6 -59 8 -65 6 -7 -2 18 -9 55 -16
l66 -13 137 94 c93 63 131 94 118 96 -10 2 -57 12 -105 22 -76 15 -91 16 -115
3z m17 -119 c0 -2 -7 -4 -15 -4 -8 0 -15 4 -15 10 0 5 7 7 15 4 8 -4 15 -8 15
-10z"/>
<path d="M5828 3213 c7 -3 16 -2 19 1 4 3 -2 6 -13 5 -11 0 -14 -3 -6 -6z"/>
<path d="M6056 3185 c-11 -8 -15 -15 -9 -15 6 0 16 7 23 15 16 19 11 19 -14 0z"/>
<path d="M6138 3153 c7 -3 16 -2 19 1 4 3 -2 6 -13 5 -11 0 -14 -3 -6 -6z"/>
<path d="M6358 3113 c6 -2 18 -2 25 0 6 3 1 5 -13 5 -14 0 -19 -2 -12 -5z"/>
<path d="M6458 3093 c7 -3 16 -2 19 1 4 3 -2 6 -13 5 -11 0 -14 -3 -6 -6z"/>
<path d="M6508 3083 c6 -2 18 -2 25 0 6 3 1 5 -13 5 -14 0 -19 -2 -12 -5z"/>
<path d="M6418 3043 c7 -3 16 -2 19 1 4 3 -2 6 -13 5 -11 0 -14 -3 -6 -6z"/>
<path d="M6738 3043 c7 -3 16 -2 19 1 4 3 -2 6 -13 5 -11 0 -14 -3 -6 -6z"/>
<path d="M4658 2993 c7 -3 16 -2 19 1 4 3 -2 6 -13 5 -11 0 -14 -3 -6 -6z"/>
<path d="M6688 2993 c7 -3 16 -2 19 1 4 3 -2 6 -13 5 -11 0 -14 -3 -6 -6z"/>
<path d="M6783 2973 c9 -2 23 -2 30 0 6 3 -1 5 -18 5 -16 0 -22 -2 -12 -5z"/>
<path d="M4818 2963 c7 -3 16 -2 19 1 4 3 -2 6 -13 5 -11 0 -14 -3 -6 -6z"/>
<path d="M4448 2843 c7 -3 16 -2 19 1 4 3 -2 6 -13 5 -11 0 -14 -3 -6 -6z"/>
<path d="M6699 2793 c-13 -16 -12 -17 4 -4 16 13 21 21 13 21 -2 0 -10 -8 -17
-17z"/>
<path d="M3553 2600 c-86 -39 -131 -162 -120 -331 10 -169 64 -257 172 -279
111 -23 188 14 240 116 29 57 30 64 30 194 0 133 -1 137 -33 203 -44 88 -89
117 -183 117 -41 0 -79 -7 -106 -20z m154 -122 c15 -27 18 -58 18 -175 0 -128
-2 -144 -21 -170 -27 -36 -70 -38 -95 -3 -39 52 -50 243 -19 326 24 63 88 75
117 22z"/>
<path d="M4203 2594 c-28 -15 -73 -43 -100 -63 -47 -36 -48 -37 -51 -99 -2
-34 -1 -62 2 -62 8 0 79 42 113 67 17 13 33 20 35 16 1 -4 3 -110 3 -235 l0
-228 73 0 72 0 0 309 0 309 -22 6 c-43 11 -74 6 -125 -20z"/>
<path d="M4880 2598 c-93 -47 -139 -169 -126 -332 8 -106 20 -147 59 -198 44
-59 86 -78 170 -78 101 0 154 36 198 135 41 92 37 301 -7 387 -50 98 -190 138
-294 86z m154 -127 c24 -42 35 -231 17 -298 -27 -98 -85 -111 -123 -26 -17 38
-20 67 -20 157 0 111 9 155 40 189 25 28 63 18 86 -22z"/>
<path d="M5650 2614 c-58 -21 -111 -50 -115 -65 -5 -14 11 -106 20 -117 2 -2
25 12 51 30 115 78 210 13 159 -109 -9 -22 -62 -82 -130 -148 -120 -116 -126
-127 -109 -193 l6 -22 212 2 211 3 3 58 3 57 -121 0 c-67 0 -120 4 -118 9 2 4
28 28 58 53 176 142 206 313 73 415 -32 24 -46 28 -112 30 -42 1 -83 0 -91 -3z"/>
<path d="M3080 2425 l0 -75 -75 0 -75 0 0 -50 0 -49 73 -3 72 -3 3 -72 3 -73
-76 0 -75 0 0 -55 0 -55 219 0 219 0 -2 53 -2 52 -84 5 -85 5 0 70 0 70 73 3
72 3 0 49 0 50 -75 0 -75 0 0 75 0 75 -55 0 -55 0 0 -75z"/>
<path d="M6223 2281 c-27 -17 -33 -18 -33 -6 0 11 -12 15 -45 15 l-45 0 0
-150 0 -150 45 0 45 0 0 94 c0 76 3 98 18 116 16 19 22 21 40 11 24 -13 24
-10 22 -134 l-1 -88 48 3 48 3 2 94 c3 105 11 123 57 119 l31 -3 3 -107 3
-108 44 0 45 0 0 118 c0 127 -15 173 -60 187 -32 10 -88 -3 -112 -27 l-21 -21
-18 22 c-26 32 -76 37 -116 12z"/>
<path d="M6740 2289 c-14 -5 -31 -17 -37 -26 -12 -15 -13 -15 -13 5 0 19 -6
22 -40 22 l-40 0 0 -150 0 -150 45 0 45 0 0 95 c0 82 3 98 20 115 11 11 26 20
33 20 30 0 37 -25 37 -127 l0 -103 45 0 45 0 0 91 c0 106 9 129 50 129 37 0
43 -18 38 -134 l-3 -86 48 0 47 0 0 120 c0 67 -5 130 -11 144 -24 52 -117 59
-165 11 -21 -21 -24 -22 -29 -6 -6 20 -46 41 -73 40 -9 0 -28 -5 -42 -10z"/>
<path d="M4440 2240 l0 -50 115 0 115 0 0 50 0 50 -115 0 -115 0 0 -50z"/>
<path d="M3953 2130 c-42 -17 -56 -77 -28 -117 19 -28 76 -39 114 -23 44 18
64 77 38 111 -27 36 -78 48 -124 29z"/>
<path d="M5315 2128 c-75 -40 -54 -133 32 -145 35 -5 45 -2 67 20 68 68 -14
172 -99 125z"/>
</g>
</svg>
